<svg xmlns="http://www.w3.org/2000/svg" width="36.813" height="36.81" viewBox="0 0 36.813 36.81">
  <g id="star-svgrepo-com" transform="translate(0.001)" fill="#fff">
    <path d="M36.752,13.965a1.152,1.152,0,0,0-.917-.773L24.518,11.463,19.447.662a1.151,1.151,0,0,0-2.083,0l-5.071,10.8L.976,13.193a1.151,1.151,0,0,0-.65,1.941l8.222,8.431L6.606,35.474A1.15,1.15,0,0,0,8.3,36.666l10.108-5.591,10.108,5.591a1.157,1.157,0,0,0,.557.144A1.151,1.151,0,0,0,30.2,35.474L28.262,23.565l8.222-8.431A1.15,1.15,0,0,0,36.752,13.965Z" stroke="none"/>
    <path d="M 18.40571975708008 7.855472564697266 L 15.00739860534668 15.09467697143555 L 7.060369491577148 16.3093147277832 L 12.82149696350098 22.21674728393555 L 11.49862098693848 30.32473945617676 L 18.40514755249023 26.50476837158203 L 25.31166076660156 30.32473373413086 L 23.98878860473633 22.21674728393555 L 29.75032424926758 16.30889892578125 L 21.80409812927246 15.09479713439941 L 18.40571975708008 7.855472564697266 M 18.40571784973145 -3.814697265625e-06 C 18.85151863098145 -3.814697265625e-06 19.25761795043945 0.2576980590820312 19.44744873046875 0.6615066528320312 L 24.51803779602051 11.46303749084473 L 35.83496856689453 13.19215774536133 C 36.26120758056641 13.25773620605469 36.61554718017578 13.55569648742676 36.75244903564453 13.96468734741211 C 36.88934707641602 14.37309646606445 36.78580856323242 14.82406616210938 36.48381805419922 15.13353729248047 L 28.26158905029297 23.56457710266113 L 30.20468902587891 35.4739875793457 C 30.2760181427002 35.90885543823242 30.0925178527832 36.34660720825195 29.73184776306152 36.59969711303711 C 29.37241363525391 36.85434341430664 28.8980770111084 36.87811660766602 28.51295852661133 36.66642761230469 L 18.40514755249023 31.07583618164062 L 8.297327041625977 36.66642761230469 C 7.912220001220703 36.87811279296875 7.438928604125977 36.85435104370117 7.078428268432617 36.59969711303711 C 6.717767715454102 36.34659576416016 6.534267425537109 35.90885543823242 6.605598449707031 35.4739875793457 L 8.548698425292969 23.56457710266113 L 0.3264694213867188 15.13353729248047 C 0.02504730224609375 14.82463645935059 -0.077911376953125 14.37366676330566 0.05898666381835938 13.96525764465332 C 0.1964683532714844 13.55627632141113 0.5502281188964844 13.25773620605469 0.9764671325683594 13.1927375793457 L 12.29339790344238 11.46303749084473 L 17.36398696899414 0.6615066528320312 C 17.55438804626465 0.2576980590820312 17.95991706848145 -3.814697265625e-06 18.40571784973145 -3.814697265625e-06 Z" stroke="none" fill="#fff"/>
  </g>
</svg>
