<svg xmlns="http://www.w3.org/2000/svg" width="29" height="29" viewBox="0 0 29 29">
  <g id="Nuke" transform="translate(-28 -167)">
    <g id="Ellipse_3" data-name="Ellipse 3" transform="translate(28 167)" fill="#12228b" stroke="#fff" stroke-width="2">
      <circle cx="14.5" cy="14.5" r="14.5" stroke="none"/>
      <circle cx="14.5" cy="14.5" r="13.5" fill="none"/>
    </g>
    <path id="nuclear-bomb-svgrepo-com" d="M27,38.588a4.253,4.253,0,0,0,.956.411A4.73,4.73,0,0,1,21.6,32.505a5.222,5.222,0,0,0,.552,1.208,15.55,15.55,0,0,0,2.28,2.835A12.667,12.667,0,0,0,27,38.588Zm5.341-16.972-2.558,2.558,6.647,6.647,2.558-2.558Zm-2.22,5.4,3.424,3.424,1.718.228-5.341-5.341Zm3.12,4.108c-.6,1.321-2.52,5.4-4.165,7.05-1.444,1.444-7.9-5.475-6.687-6.687,1.637-1.637,5.739-3.5,7.1-4.089l3.725,3.725Zm-5.273,3.258a1.263,1.263,0,0,1-1.217-.327L25.8,35a2.6,2.6,0,0,0,2.509.676Zm-1.54-1.549a1.263,1.263,0,0,1,.9-.893l-.344-1.3a2.6,2.6,0,0,0-1.848,1.843Zm1.6-.055a.542.542,0,1,0,.161.384.545.545,0,0,0-.161-.384Zm1.456-1.456-.948.948a1.263,1.263,0,0,1,.325,1.223l1.3.351a2.6,2.6,0,0,0-.673-2.524Z" transform="translate(13.11 150.314)" fill="#fff"/>
  </g>
</svg>
