<svg xmlns="http://www.w3.org/2000/svg" width="29" height="29" viewBox="0 0 29 29">
  <g id="Tank" transform="translate(-28 -167)">
    <g id="Ellipse_3" data-name="Ellipse 3" transform="translate(28 167)" fill="#12228b" stroke="#fff" stroke-width="2">
      <circle cx="14.5" cy="14.5" r="14.5" stroke="none"/>
      <circle cx="14.5" cy="14.5" r="13.5" fill="none"/>
    </g>
    <g id="tank-svgrepo-com" transform="translate(30.467 174.353)">
      <path id="Path_580" data-name="Path 580" d="M145.725,105.3a1.674,1.674,0,0,0-1.644-1.359h-4.1a1.674,1.674,0,0,0-1.655,1.425l-.494,3.3h8.54Z" transform="translate(-131.35 -103.937)" fill="#fff"/>
      <path id="Path_581" data-name="Path 581" d="M21.166,219.543a2.678,2.678,0,0,0-.853-.949,2.2,2.2,0,0,0-.552-.266,2.051,2.051,0,0,0-.606-.093H3.362a2.031,2.031,0,0,0-.659.111,2.293,2.293,0,0,0-.85.532,2.909,2.909,0,0,0-.608.874l-.009.02L0,223.38l.818.281.427-1.247h.779a1.929,1.929,0,0,0-.278.325,1.9,1.9,0,0,0-.325,1.062,1.7,1.7,0,0,0,.15.712,1.833,1.833,0,0,0,.271.427,3.214,3.214,0,0,0,.538.5c.195.148.4.285.6.426l.006,0,1.212.781a3.21,3.21,0,0,0,1.738.512H16.61a3.211,3.211,0,0,0,1.738-.511l1.213-.781.006,0c.179-.125.361-.248.535-.376a4.342,4.342,0,0,0,.377-.31,2.3,2.3,0,0,0,.253-.269,1.826,1.826,0,0,0,.287-.5,1.733,1.733,0,0,0,.107-.61,1.875,1.875,0,0,0-.15-.739,1.9,1.9,0,0,0-.452-.648h1.2l.773,1.444.762-.408-2.092-3.9ZM20.28,224.2a1.048,1.048,0,0,1-.162.252,2.534,2.534,0,0,1-.414.378c-.167.128-.363.259-.569.4l-1.2.773a2.436,2.436,0,0,1-1.324.39H5.938A2.436,2.436,0,0,1,4.614,226l-1.2-.773c-.184-.129-.358-.246-.511-.359a3.527,3.527,0,0,1-.313-.256,1.815,1.815,0,0,1-.178-.188,1,1,0,0,1-.166-.285.947.947,0,0,1-.06-.342,1.137,1.137,0,0,1,1.135-1.135H19.227a1.1,1.1,0,0,1,.441.09,1.145,1.145,0,0,1,.5.411,1.127,1.127,0,0,1,.194.635A.944.944,0,0,1,20.28,224.2Z" transform="translate(0 -212.863)" fill="#fff"/>
      <path id="Path_582" data-name="Path 582" d="M319.556,121.833l5.659-.489.029.339,3.259-.281-.162-1.87-3.259.282.029.338-5.659.489Z" transform="translate(-304.438 -118.798)" fill="#fff"/>
      <path id="Path_583" data-name="Path 583" d="M74.2,171.531l-2.858.018v1.463h2.592Z" transform="translate(-67.991 -168.354)" fill="#fff"/>
      <path id="Path_584" data-name="Path 584" d="M107.546,324.375a1.343,1.343,0,1,0,1.343,1.342A1.343,1.343,0,0,0,107.546,324.375Z" transform="translate(-101.211 -314.014)" fill="#fff"/>
      <path id="Path_585" data-name="Path 585" d="M177.374,324.375a1.343,1.343,0,1,0,1.343,1.343A1.342,1.342,0,0,0,177.374,324.375Z" transform="translate(-167.757 -314.014)" fill="#fff"/>
      <path id="Path_586" data-name="Path 586" d="M247.186,324.375a1.343,1.343,0,1,0,1.343,1.343A1.343,1.343,0,0,0,247.186,324.375Z" transform="translate(-234.288 -314.014)" fill="#fff"/>
      <path id="Path_587" data-name="Path 587" d="M317.014,324.375a1.343,1.343,0,1,0,1.343,1.343A1.343,1.343,0,0,0,317.014,324.375Z" transform="translate(-300.834 -314.014)" fill="#fff"/>
      <path id="Path_588" data-name="Path 588" d="M56.064,321.313a.72.72,0,1,0,.72.72A.72.72,0,0,0,56.064,321.313Z" transform="translate(-52.743 -311.096)" fill="#fff"/>
      <path id="Path_589" data-name="Path 589" d="M396.438,321.313a.72.72,0,1,0,.72.72A.72.72,0,0,0,396.438,321.313Z" transform="translate(-377.118 -311.096)" fill="#fff"/>
    </g>
  </g>
</svg>
