<?xml version="1.0"?>
<svg xmlns="http://www.w3.org/2000/svg" width="2361.137" height="2508.452" viewBox="0 0 2361.137 2508.452">
            <g id="Group_3" data-name="Group 3" transform="translate(-979.565 -287.394)">
              <path id="Path_702" data-name="Path 702" d="M356.854,74.04,375.116,123.2l28.09,1.405v53.375H355.449v11.238H286.622l-35.116-19.665H203.75l1.405-2.81,8.428-5.618,18.26-7.023,35.116-39.329,4.213-2.81,43.544-11.236Z" transform="translate(814.104 2483.305)" fill="#fc7c00" stroke="#fff" stroke-width="2"/>
              <path id="Path_703" data-name="Path 703" d="M212.413,76.519H236.29V70.9h89.9l-7.023,49.161-11.236,1.4v26.688H208.2v-8.428l4.213-50.566V76.519Z" transform="translate(1434.712 2045.393)" fill="#fc7c00" stroke="#fff" stroke-width="2"/>
              <path id="Path_704" data-name="Path 704" d="M208.89,69.945l95.517-1.405V178.1H269.291l-59,1.405Z" transform="translate(1530.94 1716.261)" fill="#fc7c00" stroke="#fff" stroke-width="2"/>
              <path id="Path_705" data-name="Path 705" d="M245.061,191.963l-35.116,1.4L208.54,111.9V93.64l35.116-1.405h37.923L320.911,72.57l-1.405,88.491Z" transform="translate(1482.129 2278.295)" fill="#2a2d3d" stroke="#fff" stroke-width="2"/>
              <path id="Path_706" data-name="Path 706" d="M341.36,112.528l-11.236,36.521,1.405,40.733-75.852,1.405h-5.617l-40.734-14.046-1.405-26.688h7.023l-1.4-82.873H339.957Z" transform="translate(1395.662 1582.376)" fill="#2a2d3d" stroke="#fff" stroke-width="2"/>
              <path id="Path_707" data-name="Path 707" d="M298.3,206.179H208.4V71.335l85.683-1.405h2.81l1.405,95.515Z" transform="translate(1462.604 1910.114)" fill="#2a2d3d" stroke="#fff" stroke-width="2"/>
              <path id="Path_708" data-name="Path 708" d="M207.973,183.2V129.82l-1.4-53.375,16.854-4.214v2.809h78.66l2.81,91.3h16.854v14.046h0V184.6l-80.062-1.4Z" transform="translate(1207.389 2230.879)" fill="#2a2d3d" stroke="#fff" stroke-width="2"/>
              <path id="Path_709" data-name="Path 709" d="M311.144,103.842l-16.856,9.832-84.278-1.405,1.408-8.427V98.224L291.48,72.94l8.426,8.428Z" transform="translate(1687.14 2329.896)" fill="#2a2d3d" stroke="#fff" stroke-width="2"/>
              <path id="Path_710" data-name="Path 710" d="M251.191,166.726V127.4l-28.09-1.405L204.84,76.83l68.826-2.81,53.378,8.429V170.94Z" transform="translate(966.116 2480.516)" fill="#2a2d3d" stroke="#fff" stroke-width="2"/>
              <path id="Path_711" data-name="Path 711" d="M206.03,149.639V68.17H350.709L349.3,149.639H206.03Z" transform="translate(1132.078 1664.659)" fill="#2a2d3d" stroke="#fff" stroke-width="2"/>
              <path id="Path_712" data-name="Path 712" d="M314.257,154.123l-1.407,1.405,1.407,21.07H210.312l-1.4-77.255h0V72.655l11.236-1.405h92.7Z" transform="translate(1533.731 2094.205)" fill="#2a2d3d" stroke="#fff" stroke-width="2"/>
              <path id="Path_713" data-name="Path 713" d="M212.839,103.332l8.426-8.428,5.621-19.665h-2.811l-2.811-2.808H335.039V181.991h-89.9l2.81-4.214,1.4-9.833L231.1,135.638l-14.046-14.046L204.41,110.354l1.405-4.213,2.808-1.4Z" transform="translate(906.15 2258.771)" fill="#2a2d3d" stroke="#fff" stroke-width="2"/>
              <path id="Path_714" data-name="Path 714" d="M266.636,189.859l-9.834-5.619L232.922,171.6l-7.023-1.4-5.618-1.405h-5.618l-4.216,1.405h0L204.83,99.964V88.726h47.757V74.68l75.852,4.214v9.832h16.854v26.688H328.439l-60.4,60.4Z" transform="translate(964.723 2572.562)" fill="#fc7c00" stroke="#fff" stroke-width="2"/>
              <path id="Path_715" data-name="Path 715" d="M244.436,68.74H325.9L328.71,176.9l-42.139,1.4H209.32V150.209h35.116Z" transform="translate(1590.912 1744.153)" fill="#2a2d3d" stroke="#fff" stroke-width="2"/>
              <path id="Path_716" data-name="Path 716" d="M220.026,67.9l35.116,8.428,71.637,1.405-8.426,26.688V157.8L222.837,159.2H210.2V145.154l-1.405-40.733Z" transform="translate(1516.995 1627.004)" fill="#2a2d3d" stroke="#fff" stroke-width="2"/>
              <path id="Path_738" data-name="Path 738" d="M280.954,128.515H210.722l-1.4-59h77.252l-1.4,59Z" transform="translate(1590.912 1852.933)" fill="#2a2d3d" stroke="#fff" stroke-width="2"/>
              <path id="Path_739" data-name="Path 739" d="M348.418,70.38v78.66h0l-7.026,1.4H206.55V70.38l92.706,1.4Z" transform="translate(1204.6 1972.872)" fill="#2a2d3d" stroke="#fff" stroke-width="2"/>
              <path id="Path_740" data-name="Path 740" d="M205.34,207.9V99.742L217.981,71.65l57.59,1.4v40.734h22.475v40.734H262.93V209.3h-4.213Z" transform="translate(1035.848 2149.99)" fill="#2a2d3d" stroke="#fff" stroke-width="2"/>
              <path id="Path_741" data-name="Path 741" d="M330.688,101.081v4.214h0v43.543h0l-120.8,2.811V68.774l120.8-1.4h0v33.711Z" transform="translate(1670.403 1553.089)" fill="#2a2d3d" stroke="#fff" stroke-width="2"/>
              <path id="Path_875" data-name="Path 875" d="M244.446,182.8,209.33,167.346l5.618-7.023,1.4-2.809,4.216-5.619,4.213-7.023L230.4,123.8l-1.405-5.619v-8.428l1.405-2.81,2.811-4.213V87.283l-1.405-2.81L230.4,78.855l-1.405-11.237-1.4-2.809V59.19h50.567V87.283H391.932l4.216,81.469-139.061-1.405Z" transform="translate(1592.306 412.283)" fill="#df26c7" stroke="#fff" stroke-width="2"/>
              <path id="Path_876" data-name="Path 876" d="M356.583,64.61l1.408,109.561H210.505L209.1,66.015l74.444-1.405Z" transform="translate(1560.23 1168.172)" fill="#2a2d3d" stroke="#fff" stroke-width="2"/>
              <path id="Path_877" data-name="Path 877" d="M354.345,66.17l1.408,96.919H209.67V66.17H354.345Z" transform="translate(1639.722 1385.733)" fill="#2a2d3d" stroke="#fff" stroke-width="2"/>
              <path id="Path_878" data-name="Path 878" d="M360.416,62.915h0V171.071H210.12V61.51l74.445,1.405Z" transform="translate(1702.48 735.837)" fill="#2a2d3d" stroke="#fff" stroke-width="2"/>
              <path id="Path_879" data-name="Path 879" d="M356.76,63.84l1.405,50.566V172H210.68V63.84Z" transform="translate(1780.579 1060.786)" fill="#df26c7" stroke="#fff" stroke-width="2"/>
              <path id="Path_880" data-name="Path 880" d="M359.044,174.171H211.557L210.15,64.61H357.636Z" transform="translate(1706.663 1168.172)" fill="#df26c7" stroke="#fff" stroke-width="2"/>
              <path id="Path_881" data-name="Path 881" d="M285.1,63.07h74.444V169.822h0v1.4H213.467L210.66,63.07Z" transform="translate(1777.791 953.399)" fill="#df26c7" stroke="#fff" stroke-width="2"/>
              <path id="Path_883" data-name="Path 883" d="M211.525,171.851,210.12,62.29h150.3V171.851H211.525Z" transform="translate(1702.48 844.618)" fill="#df26c7" stroke="#fff" stroke-width="2"/>
              <path id="Path_884" data-name="Path 884" d="M353.3,65.39V66.8l1.408,53.375,1.4,54.781H208.62V65.39H353.3Z" transform="translate(1493.287 1276.952)" fill="#fc7c00" stroke="#fff" stroke-width="2"/>
              <path id="Path_886" data-name="Path 886" d="M208,61.51H356.889L358.3,171.071H209.4v-1.4Z" transform="translate(1406.82 735.837)" fill="#df26c7" stroke="#fff" stroke-width="2"/>
              <path id="Path_887" data-name="Path 887" d="M213.135,184.13,211.73,68.95l73.042,1.4L395.735,66.14l4.215,112.371-36.52,1.4h0Z" transform="translate(1927.016 1381.55)" fill="#2a2d3d" stroke="#fff" stroke-width="2"/>
              <path id="Path_890" data-name="Path 890" d="M209.07,170.447V62.29H356.554l1.405,109.561Z" transform="translate(1556.046 844.618)" fill="#df26c7" stroke="#fff" stroke-width="2"/>
              <path id="Path_891" data-name="Path 891" d="M285.634,176.035H211.19V66.474L348.842,62.26v81.469l-1.4,26.688Z" transform="translate(1851.706 840.434)" fill="#df26c7" stroke="#fff" stroke-width="2"/>
              <path id="Path_892" data-name="Path 892" d="M286.322,172.621V117.84H209.07V63.06l148.889,1.4h74.447l2.808,108.156Z" transform="translate(1556.046 952.005)" fill="#2a2d3d" stroke="#fff" stroke-width="2"/>
              <path id="Path_893" data-name="Path 893" d="M356.9,225.227H208.01V62.29H356.9V225.227Z" transform="translate(1408.214 844.618)" fill="#df26c7" stroke="#fff" stroke-width="2"/>
              <path id="Path_894" data-name="Path 894" d="M357.951,61.51V171.071H210.468L209.06,61.51H357.951Z" transform="translate(1554.649 735.837)" fill="#df26c7" stroke="#fff" stroke-width="2"/>
              <path id="Path_895" data-name="Path 895" d="M287.895,170.3H212.043l-1.4-81.469,1.4-28.092,150.3,1.4,1.4,103.943-1.4,4.213Z" transform="translate(1775 628.451)" fill="#df26c7" stroke="#fff" stroke-width="2"/>
              <path id="Path_896" data-name="Path 896" d="M211.72,68.023v-1.4h0v-1.4l137.652-1.4v78.659l1.408,30.9-73.042,1.405H213.125V118.589Z" transform="translate(1925.622 1056.602)" fill="#df26c7" stroke="#fff" stroke-width="2"/>
              <path id="Path_897" data-name="Path 897" d="M397.659,174.921H323.213L212.25,179.135V68.169h57.59l88.487-1.4,35.116-1.405,1.408,26.688,1.4,54.781Z" transform="translate(1999.537 1272.769)" fill="#df26c7" stroke="#fff" stroke-width="2"/>
              <path id="Path_898" data-name="Path 898" d="M360.192,168.9H208.49L209.9,60.74h151.7Z" transform="translate(1475.157 628.451)" fill="#df26c7" stroke="#fff" stroke-width="2"/>
              <path id="Path_996" data-name="Path 996" d="M339.138,182.139H218.34V113.313h29.5l1.405-22.474h60.4L308.236,66.96h30.9v91.3h0Z" transform="translate(2848.865 1495.909)" fill="#3e25e2" stroke="#fff" stroke-width="2"/>
              <path id="Path_997" data-name="Path 997" d="M356.083,68.18v54.78l-29.5,54.781L212.81,176.335V68.18Z" transform="translate(2077.635 1666.053)" fill="#2a2d3d" stroke="#fff" stroke-width="2"/>
              <path id="Path_998" data-name="Path 998" d="M325.18,168.68,212.81,157.443V68.95l113.775,1.405,5.618,36.52,23.88,4.214,1.4,53.375-1.4,2.81Z" transform="translate(2077.635 1773.439)" fill="#3e25e2" stroke="#fff" stroke-width="2"/>
              <path id="Path_999" data-name="Path 999" d="M246,69.29H394.889V80.528l-7.023,58.994H375.225l-147.486-4.214,1.4-36.52-12.641,1.4V69.29Z" transform="translate(2592.253 1820.858)" fill="#3e25e2" stroke="#fff" stroke-width="2"/>
              <path id="Path_1000" data-name="Path 1000" d="M215.25,175.506l5.618-57.59,4.215-47.756,85.68,4.214L345.879,81.4,357.118,82.8h44.949l-1.405,22.474L397.852,172.7l-11.236,11.237-71.636-5.619-2.808,2.809-35.115-2.809Z" transform="translate(2417.925 1942.191)" fill="#2a2d3d" stroke="#fff" stroke-width="2"/>
              <path id="Path_1001" data-name="Path 1001" d="M259.664,70.53l94.108,1.4-15.451,18.26,2.81,74.446-2.81,36.52L213.31,194.138l1.4-14.047v-2.809l1.405-1.4,18.262,1.4,22.472-74.445Z" transform="translate(2147.368 1993.792)" fill="#2a2d3d" stroke="#fff" stroke-width="2"/>
              <path id="Path_1002" data-name="Path 1002" d="M212.985,157.427,211.58,70.34,339.4,74.554,335.189,119.5l-4.215,50.566h-1.405l-14.044-1.405h-1.408l-15.451-1.4h-1.4V156.022Z" transform="translate(1906.098 1967.292)" fill="#2a2d3d" stroke="#fff" stroke-width="2"/>
              <path id="Path_1003" data-name="Path 1003" d="M251.37,184.665l1.405-23.879-18.259-1.4,1.4-26.688-18.259-1.4,1.405-26.689,35.116,1.4V87.746H290.7L314.582,70.89h47.756l-1.408,25.283H337.053l-1.4,50.566,11.238,32.307-35.116,1.4L287.892,166.4v19.664Z" transform="translate(2754.031 2043.998)" fill="#2a2d3d" stroke="#fff" stroke-width="2"/>
              <path id="Path_1004" data-name="Path 1004" d="M249.026,128.756,213.91,116.113l9.834-43.543L400.727,81,393.7,149.825l-73.042-2.81-53.378-1.405Z" transform="translate(2231.046 2278.295)" fill="#3e25e2" stroke="#fff" stroke-width="2"/>
              <path id="Path_1005" data-name="Path 1005" d="M215.232,67.44l23.88,14.046,120.8-1.4,32.308,9.832,2.808,43.544v11.236H213.83Z" transform="translate(2219.887 1562.852)" fill="#2a2d3d" stroke="#fff" stroke-width="2"/>
              <path id="Path_1006" data-name="Path 1006" d="M213.83,149.459V67.99h181.2l2.81,80.064-88.493,1.4H213.83Z" transform="translate(2219.887 1639.555)" fill="#2a2d3d" stroke="#fff" stroke-width="2"/>
              <path id="Path_1007" data-name="Path 1007" d="M213.54,156.736l9.834-85.681,30.9-1.405h53.378v82.873h23.877l1.405,30.9v11.237H321.7l-94.108-1.4,4.213-35.116Z" transform="translate(2179.444 1871.064)" fill="#2a2d3d" stroke="#fff" stroke-width="2"/>
              <path id="Path_1008" data-name="Path 1008" d="M216.7,68.57l137.653,1.405L367,92.449V169.7H218.105V102.281L216.7,96.663V68.57Z" transform="translate(2620.145 1720.444)" fill="#3e25e2" stroke="#fff" stroke-width="2"/>
              <path id="Path_1009" data-name="Path 1009" d="M358.878,67.18V103.7l-1.4,77.254v26.689H214.2l-1.4-77.255,53.375-23.879,2.807-11.237L311.121,67.18Z" transform="translate(2076.241 1526.592)" fill="#2a2d3d" stroke="#fff" stroke-width="2"/>
              <path id="Path_1028" data-name="Path 1028" d="M228.514,88.395l73.041-1.405V74.348l71.634-5.618v85.682l-71.634,1.4L266.44,141.77l-54.78,1.4V101.036Z" transform="translate(1917.254 1742.759)" fill="#2a2d3d" stroke="#fff" stroke-width="2"/>
              <path id="Path_1029" data-name="Path 1029" d="M258.774,224.139h0l-11.238-4.213-5.618-1.4H236.3l-21.069,5.617H212.42L230.682,80.868l1.4-8.428,39.331,1.4-1.405,71.637h61.8L321.98,264.873h-1.4l-16.857-4.214-2.807-1.405-1.408-1.4v-4.214l-23.877-23.88-2.808-1.4-2.811-1.4Z" transform="translate(2023.246 2260.166)" fill="#3e25e2" stroke="#fff" stroke-width="2"/>
              <path id="Path_1030" data-name="Path 1030" d="M220.959,71.74l95.513,5.619,29.5,1.4-4.216,51.972-60.4,36.52-25.282,4.214-39.331-1.4H212.53l5.621-58.995Z" transform="translate(2038.585 2162.541)" fill="#2a2d3d" stroke="#fff" stroke-width="2"/>
              <path id="Path_1031" data-name="Path 1031" d="M210.75,69l144.676-1.4h35.115v81.469l-35.115,1.4V136.426H320.31L318.9,122.38H210.75v-5.619h0V73.219h0Z" transform="translate(1790.343 1585.166)" fill="#2a2d3d" stroke="#fff" stroke-width="2"/>
              <path id="Path_1032" data-name="Path 1032" d="M339.687,134.618l-15.451,19.665-16.854,23.878-1.408-1.4H238.552l4.216-51.972-29.5-1.4,5.618-51.971L343.9,78.432Z" transform="translate(2141.79 2116.519)" fill="#2a2d3d" stroke="#fff" stroke-width="2"/>
              <path id="Path_1475" data-name="Path 1475" d="M323.166,156.574V165H206.58V73.7H323.166v82.874Z" transform="translate(1208.783 2435.888)" fill="#fc7c00" stroke="#fff" stroke-width="2"/>
              <path id="Path_1476" data-name="Path 1476" d="M204.94,72.285l67.421-1.405h35.116V97.569l25.285,1.4-1.405,81.469-57.59-1.4H216.179l-4.216-14.046L224.6,100.377Z" transform="translate(980.064 2042.603)" fill="#fc7c00" stroke="#fff" stroke-width="2"/>
              <path id="Path_1477" data-name="Path 1477" d="M295.276,66.97l1.4,77.254V215.86l-12.641,4.214L233.47,200.409l-28.09,14.046V93.658h0l9.831-1.4,8.425-1.405V88.039l11.239-1.4,1.405,1.4,16.856-5.619,12.641-4.213L271.4,76.8l23.88-9.832Z" transform="translate(1041.428 1497.304)" fill="#fc7c00" stroke="#fff" stroke-width="2"/>
              <path id="Path_1478" data-name="Path 1478" d="M339.057,70.09v36.52h0v4.214l-1.405,15.451V165.6H211.235V143.131l-1.4-71.637Z" transform="translate(1662.036 1932.427)" fill="#2a2d3d" stroke="#fff" stroke-width="2"/>
              <path id="Path_1479" data-name="Path 1479" d="M255.684,84.962,279.562,72.32h47.757L306.251,184.691v5.619H285.179v5.617H209.33l1.405-88.491h0Z" transform="translate(1592.306 2243.429)" fill="#2a2d3d" stroke="#fff" stroke-width="2"/>
              <path id="Path_1480" data-name="Path 1480" d="M208.325,66.86H353v47.757h0v40.734H226.587V169.4H208.325l11.236-43.543L206.92,101.976Z" transform="translate(1256.2 1481.962)" fill="#2a2d3d" stroke="#fff" stroke-width="2"/>
              <path id="Path_1481" data-name="Path 1481" d="M206.03,149.059V129.394l44.95-15.451,26.687-36.52,54.781-9.833h18.262v81.469Z" transform="translate(1132.078 1583.771)" fill="#fc7c00" stroke="#fff" stroke-width="2"/>
              <path id="Path_1482" data-name="Path 1482" d="M326.466,66.86h1.4l4.215,5.619v35.116h0v30.9h0l-120.8,1.4L209.88,66.86H326.466Z" transform="translate(1669.01 1481.962)" fill="#2a2d3d" stroke="#fff" stroke-width="2"/>
              <path id="Path_1483" data-name="Path 1483" d="M326.941,69.87v58.994l-119.391,1.4V71.274Z" transform="translate(1344.062 1901.746)" fill="#2a2d3d" stroke="#fff" stroke-width="2"/>
              <path id="Path_1484" data-name="Path 1484" d="M279.066,71.39h0v49.162h0V134.6l-68.826-1.4V74.2Z" transform="translate(1719.217 2113.729)" fill="#2a2d3d" stroke="#fff" stroke-width="2"/>
              <path id="Path_1485" data-name="Path 1485" d="M321.093,181.211H207.318l-1.4-1.4-1.405-5.619,2.808-9.832,4.216-7.022,1.405-1.405,12.64-4.213h2.808l1.4,1.4V125.025h0V71.65H333.734L321.093,99.742Z" transform="translate(920.094 2149.99)" fill="#2a2d3d" stroke="#fff" stroke-width="2"/>
              <path id="Path_1486" data-name="Path 1486" d="M209.612,69.855h5.618l75.852-1.4V82.5h12.641l1.4,109.561H211.018L208.21,83.9l1.4-1.4Z" transform="translate(1436.107 1703.708)" fill="#fc7c00" stroke="#fff" stroke-width="2"/>
              <path id="Path_1487" data-name="Path 1487" d="M305.734,187.266H293.093l-68.829-1.4H207.41V102.987l9.831-23.879,57.591-5.619,63.208,15.451,1.4,49.162,11.236,4.215-11.236,18.26-33.71,4.214Z" transform="translate(1324.536 2406.601)" fill="#fc7c00" stroke="#fff" stroke-width="2"/>
              <path id="Path_1488" data-name="Path 1488" d="M308.19,178.311H207.055V123.53H205.65v-30.9l35.116-1.4L259.025,68.75H367.182v54.78H315.21Z" transform="translate(1079.082 1745.548)" fill="#2a2d3d" stroke="#fff" stroke-width="2"/>
              <path id="Path_1495" data-name="Path 1495" d="M205.34,155.493V72.62l53.377,1.4h4.213l116.583,1.405V156.9H248.884Z" transform="translate(1035.848 2285.269)" fill="#fc7c00" stroke="#fff" stroke-width="2"/>
              <path id="Path_1496" data-name="Path 1496" d="M208.955,161.591V82.931L207.55,71.694l119.391-1.4v91.3H208.955Z" transform="translate(1344.062 1960.321)" fill="#fc7c00" stroke="#fff" stroke-width="2"/>
              <path id="Path_1497" data-name="Path 1497" d="M216.013,111.344V70.61h112.37V93.083H332.6l-5.618,67.423H208.99Z" transform="translate(1544.888 2004.949)" fill="#2a2d3d" stroke="#fff" stroke-width="2"/>
              <path id="Path_1498" data-name="Path 1498" d="M273.279,70.925h11.235l82.873-1.405v49.164L248,120.087v9.832L207.26,111.66V70.925h66.019Z" transform="translate(1303.616 1852.933)" fill="#2a2d3d" stroke="#fff" stroke-width="2"/>
              <path id="Path_1499" data-name="Path 1499" d="M340.829,178.2l-63.208-15.451-57.59,5.619-1.4-71.636-11.238,1.4V93.919h0V79.873l74.444-1.4,67.421,2.81,19.667-8.428,1.4,81.468Z" transform="translate(1321.748 2317.344)" fill="#fc7c00" stroke="#fff" stroke-width="2"/>
              <path id="Path_1500" data-name="Path 1500" d="M288.862,174.334l-44.947-5.619V146.241L208.8,127.981V104.1l74.444-30.9h75.85v68.827l-4.213-1.4-2.808-2.808-7.023-8.429-4.216-1.4-4.213-1.4H318.36l-25.285,1.4-2.808,1.4-4.213,1.405-5.621,5.619-1.4,7.022,5.618,23.88Z" transform="translate(1518.39 2366.157)" fill="#2a2d3d" stroke="#fff" stroke-width="2"/>
              <path id="Path_1501" data-name="Path 1501" d="M208.85,66.86H353.526l1.405,73.04L210.255,141.3Z" transform="translate(1525.364 1481.962)" fill="#fc7c00" stroke="#fff" stroke-width="2"/>
              <path id="Path_1502" data-name="Path 1502" d="M239.728,66.86h94.111l-1.405,35.116,12.641,23.878L333.839,169.4l-54.78,9.833-26.687,36.52L207.422,231.2V159.565l-1.4-77.254,7.023-4.214,11.235-4.214Z" transform="translate(1130.685 1481.962)" fill="#fc7c00" stroke="#fff" stroke-width="2"/>
              <path id="Path_1503" data-name="Path 1503" d="M328.169,70.94V83.581l-4.213,50.566v26.688l-28.092,1.4H231.25l-5.618,1.405H207.37v-91.3h19.664l7.026-1.4h94.108Z" transform="translate(1318.958 2050.971)" fill="#2a2d3d" stroke="#fff" stroke-width="2"/>
              <path id="Path_1504" data-name="Path 1504" d="M281.89,191.208l-75.85,7.024V99.909l5.618-26.689H281.89V191.208Z" transform="translate(1133.472 2368.946)" fill="#fc7c00" stroke="#fff" stroke-width="2"/>
              <path id="Path_1505" data-name="Path 1505" d="M303.233,176.717V203.4l-82.872,1.4H209.125L207.72,95.248V68.56h68.829l2.807,108.157Z" transform="translate(1367.771 1719.049)" fill="#2a2d3d" stroke="#fff" stroke-width="2"/>
              <path id="Path_1506" data-name="Path 1506" d="M342.818,71.59v91.3L302.084,164.3h-78.66V123.562H206.57L215,82.827h60.4L318.938,73H337.2Z" transform="translate(1207.389 2141.622)" fill="#2a2d3d" stroke="#fff" stroke-width="2"/>
              <path id="Path_1519" data-name="Path 1519" d="M338.14,69.14h1.405v81.469H204.7V146.4h0V132.348h0V69.14H338.14Z" transform="translate(946.592 1799.938)" fill="#fc7c00" stroke="#fff" stroke-width="2"/>
              <path id="Path_1520" data-name="Path 1520" d="M298.551,72.24l2.808,60.4v30.9l-74.445,1.4H210.06l-2.81-91.3,40.734-1.405Z" transform="translate(1302.222 2232.272)" fill="#2a2d3d" stroke="#fff" stroke-width="2"/>
              <path id="Path_1521" data-name="Path 1521" d="M206.38,123.921,213.4,69.14h51.973l18.259,14.046h46.352v81.469H230.257V123.921Z" transform="translate(1180.891 1799.938)" fill="#2a2d3d" stroke="#fff" stroke-width="2"/>
              <path id="Path_1522" data-name="Path 1522" d="M319.073,144.112v7.023l-5.616,9.833-5.618,8.427-2.81,1.405-19.665,9.832-1.408-1.4-2.808-1.4-2.808-1.4h0l-1.405-2.81h-5.62l9.833-19.665L265.7,137.089l-57.59-4.214V110.4l33.711-4.213,11.235-18.26L269.913,73.88h70.232L385.091,79.5l2.811,8.428V94.95l-1.405,2.81-2.807,1.4h-1.405l-8.428,4.214-44.95,22.474-4.213,5.619L320.48,139.9l-1.408,4.214Z" transform="translate(1422.161 2460.991)" fill="#2a2d3d" stroke="#fff" stroke-width="2"/>
              <path id="Path_1523" data-name="Path 1523" d="M286.645,181.042l-11.236-39.33H240.293l1.4-18.26-35.116,1.405V82.717H323.166V74.29H340.02l-18.259,87.087-2.808,1.4-1.408,1.405-1.4,1.405-21.069,7.022Z" transform="translate(1208.783 2518.171)" fill="#fc7c00" stroke="#fff" stroke-width="2"/>
              <path id="Path_1524" data-name="Path 1524" d="M208.79,171.729v-18.26h0l1.405-49.162h16.854V72H330.994v57.59l-44.95,22.473h0l-39.332,19.665Z" transform="translate(1516.995 2198.802)" fill="#2a2d3d" stroke="#fff" stroke-width="2"/>
              <path id="Path_1525" data-name="Path 1525" d="M251.169,71.335H321.4V93.809l1.405,71.637H210.435L209.03,69.93l8.428,1.405Z" transform="translate(1550.466 1910.114)" fill="#2a2d3d" stroke="#fff" stroke-width="2"/>
              <path id="Path_1526" data-name="Path 1526" d="M313.055,199.185H277.939l-67.421,1.4,4.215-54.781L204.9,133.168l30.9-18.26,8.429-8.428,5.62-1.4L265.3,88.22l47.757-18.26V199.185Z" transform="translate(974.484 1914.298)" fill="#fc7c00" stroke="#fff" stroke-width="2"/>
              <path id="Path_1573" data-name="Path 1573" d="M375.315,67.95h0v30.9h0v2.81l1.4,21.069v33.712h0v21.069l-85.683,1.4H209.57V97.448L218,70.76h36.521l120.8-2.81Z" transform="translate(1625.778 1633.977)" fill="#fc7c00" stroke="#fff" stroke-width="2"/>
              <path id="Path_1677" data-name="Path 1677" d="M394.656,79.573l1.4,26.688-21.069,4.214v2.809L376.4,117.5l1.4,4.213,4.213,2.809,5.62,4.213,2.808,2.81,2.81,25.283-1.405,2.809-35.115,14.046-11.236,1.4-5.621-4.213v-4.214l8.429-7.023v-4.214l-5.618-8.428-5.618-7.024L316,127.33h-4.213l-5.618,1.4-1.4,2.81-1.405,4.213-2.808,2.809-12.64,7.023L286.5,149.8l1.405-14.046L216.27,127.33l5.618-54.78h11.236Z" transform="translate(2560.177 2275.506)" fill="#3e25e2" stroke="#fff" stroke-width="2"/>
              <path id="Path_1678" data-name="Path 1678" d="M327.333,185.743H210.75l1.4-35.116V69.16H320.31V184.339Z" transform="translate(1790.343 1802.728)" fill="#2a2d3d" stroke="#fff" stroke-width="2"/>
              <path id="Path_1679" data-name="Path 1679" d="M306.021,69.2h30.9l1.408,50.566-7.023,63.209-30.9-1.4-57.59-2.809,1.4-16.856-29.5-7.024,19.664-16.854V88.865h30.9V70.605Z" transform="translate(2344.011 1808.306)" fill="#2a2d3d" stroke="#fff" stroke-width="2"/>
              <path id="Path_1680" data-name="Path 1680" d="M265.632,194.017l1.405-14.046-30.9-1.405,2.811-28.092-22.475-1.405,11.236-11.237,2.81-67.422L378,74.624h0l-4.216,68.826,11.238,28.092-1.405,26.689Z" transform="translate(2588.069 1977.056)" fill="#3e25e2" stroke="#fff" stroke-width="2"/>
              <path id="Path_1681" data-name="Path 1681" d="M355.426,96.083v53.375l-18.262,1.405H212.152V117.152l-1.4-21.069v-2.81h0V67.99H318.9l1.405,14.046h35.116Z" transform="translate(1790.343 1639.555)" fill="#2a2d3d" stroke="#fff" stroke-width="2"/>
              <path id="Path_1682" data-name="Path 1682" d="M378.51,177.952l-80.062-2.809,4.216-8.429-88.493-2.809,4.213-56.185,2.81-36.52,73.042,1.4,58.993,4.214L346.2,149.86l35.116,1.4Z" transform="translate(2267.303 2087.23)" fill="#3e25e2" stroke="#fff" stroke-width="2"/>
              <path id="Path_1683" data-name="Path 1683" d="M218.34,180.151V133.8h0V67.78h120.8V91.658l1.405,43.545v44.948H218.34Z" transform="translate(2848.865 1610.269)" fill="#2a2d3d" stroke="#fff" stroke-width="2"/>
              <path id="Path_1684" data-name="Path 1684" d="M210.73,70.96H313.27L316.077,173.5v7.022H210.73V131.359h0V94.839h0V92.03h0V79.388h0Z" transform="translate(1787.552 2053.76)" fill="#3e25e2" stroke="#fff" stroke-width="2"/>
              <path id="Path_1685" data-name="Path 1685" d="M337.574,206.214l-12.644,1.4-77.252,1.4-1.408-50.567h-30.9l1.405-89.9,91.3,1.4h4.213V98.057l12.641,54.782h11.239Z" transform="translate(2434.66 1719.049)" fill="#3e25e2" stroke="#fff" stroke-width="2"/>
              <path id="Path_1686" data-name="Path 1686" d="M417.558,85.906v1.405l-2.808,30.9-4.215,49.162-1.4,12.641h-5.618l-176.983-8.428L213.89,149.115l7.023-33.712,16.854-23.879L253.218,71.86l88.493,2.809L337.5,83.1Z" transform="translate(2228.256 2179.276)" fill="#3e25e2" stroke="#fff" stroke-width="2"/>
              <path id="Path_1687" data-name="Path 1687" d="M340.795,163.81,212.973,159.6l-1.4-49.162h1.4l29.495-7.023V71.1l105.348-1.4L343.6,135.718Z" transform="translate(1904.703 1878.037)" fill="#3e25e2" stroke="#fff" stroke-width="2"/>
              <path id="Path_1688" data-name="Path 1688" d="M297.832,68.58h95.517V82.626h0v1.4h0v66.018l-47.759,1.4-1.4,22.475h-23.88L217.77,179.546V91.053h0l56.186,2.81h15.451Z" transform="translate(2769.373 1721.839)" fill="#3e25e2" stroke="#fff" stroke-width="2"/>
              <path id="Path_1689" data-name="Path 1689" d="M237.294,74.949,339.831,69.33V96.017h16.857l-1.405,40.734-1.4,40.734H335.618l-1.4,28.093-88.491-1.4,1.4-46.353-29.495-1.405V133.943h12.641Z" transform="translate(2749.846 1826.436)" fill="#3e25e2" stroke="#fff" stroke-width="2"/>
              <path id="Path_1690" data-name="Path 1690" d="M354.033,109.314l-16.853,12.641v42.139H318.917V150.048H210.76v-60.4h0V68.58H335.771l1.408,26.687Z" transform="translate(1791.737 1721.839)" fill="#2a2d3d" stroke="#fff" stroke-width="2"/>
              <path id="Path_1722" data-name="Path 1722" d="M369.009,165.679H364.8l-2.81-2.808-4.213-11.237-2.811-1.405-7.02-4.213-2.811-1.405h-2.811l-4.213,2.81-22.474,15.451-21.069,23.879-28.093,9.832-7.023,9.832v-18.26L217.31,174.108l2.81-42.14,7.023-12.641,36.518,2.809L260.854,89.83h39.329l36.521,1.4V71.57l23.88,14.045,35.116-1.4,11.236,8.428,66.018,1.4v9.833l-8.428,7.022-19.667,16.856-28.092,23.879-2.808,1.4-7.023-1.4-7.024,1.4-8.428,2.809-15.448,9.832h-7.026Z" transform="translate(2705.217 2138.832)" fill="#3e25e2" stroke="#fff" stroke-width="2"/>
              <path id="Path_1723" data-name="Path 1723" d="M355.426,154.066l-144.676,1.4h0V121.76h0v-30.9h0V69.788L325.93,66.98h11.233l5.621,60.4,12.641,8.428Z" transform="translate(1790.343 1498.699)" fill="#fc7c00" stroke="#fff" stroke-width="2"/>
              <path id="Path_1724" data-name="Path 1724" d="M340.037,159.871h-60.4l-36.518,4.214-23.88-4.214-5.618-36.52,29.5-54.781h95.514Z" transform="translate(2190.6 1720.444)" fill="#3e25e2" stroke="#fff" stroke-width="2"/>
              <path id="Path_1796" data-name="Path 1796" d="M360.594,64.62h73.042l1.405,108.155H366.212L207.49,174.181l2.808-8.428,4.216-11.237,2.811-16.856v-1.4l1.4-8.428h0l1.4-2.809,1.405-2.81V119.4h0V102.544l2.81-5.619,2.808-8.427V64.62Z" transform="translate(1335.695 1169.567)" fill="#df26c7" stroke="#fff" stroke-width="2"/>
              <path id="Path_1797" data-name="Path 1797" d="M368.7,59.19l1.4,1.4h1.405l2.811,7.023,1.4,2.81,1.408,1.4v1.405h4.213l2.808,4.213,7.023,2.81h-1.4l1.4,2.809,2.81,9.833L396.8,95.71l2.808,7.023v1.4l2.811,5.619h1.4l1.405,2.809,1.405,2.81-1.405,1.4-5.618-1.4-4.215-1.4-11.236-2.809-5.618-2.81-2.81-4.214-9.831-2.809-11.236,4.214-2.81,2.809-2.811,4.213-1.405,1.405,2.81,4.213,4.215,1.4,1.4,1.405-1.4,2.809h-1.408l-4.213,2.809,2.811,12.642,1.4,2.809,1.408,2.81,2.808,1.4,5.618,2.81,2.81,4.213,1.405,1.4,12.641,4.214,9.833,2.809v7.024H212.79L215.6,60.594Z" transform="translate(2074.846 412.283)" fill="#df26c7" stroke="#fff" stroke-width="2"/>
              <path id="Path_1816" data-name="Path 1816" d="M232.854,203.51l-1.405,1.405-1.4,1.405h-8.426l-8.428-2.81h1.4l9.834-119.393h18.259L314.322,72.88l35.116,12.642,1.405,127.82-4.213,1.4-12.641-7.023-1.408-2.809-2.808-2.809-11.235-5.619-44.95-12.642H267.97l-12.641,2.81-12.644,2.809-4.213,1.4-2.807,2.809-2.811,8.428Z" transform="translate(2130.631 2321.529)" fill="#3e25e2" stroke="#fff" stroke-width="2"/>
              <path id="Path_1817" data-name="Path 1817" d="M217.425,90.883,216.02,68.41h82.873l-1.4,22.473h14.044v28.093l1.405,5.619v67.423h-29.5v30.9l-36.519,4.214-1.4-53.375H234.279l-12.641-54.781V90.883Z" transform="translate(2525.313 1698.131)" fill="#3e25e2" stroke="#fff" stroke-width="2"/>
              <path id="Path_1818" data-name="Path 1818" d="M211.53,70.655h18.262l54.78-1.4L319.688,83.3l71.634-1.4V115.6l-36.518,1.4-1.408,15.451-105.347,1.405V166.17l-29.5,7.022-7.023-1.4V70.655Z" transform="translate(1899.122 1815.279)" fill="#3e25e2" stroke="#fff" stroke-width="2"/>
              <path id="Path_1819" data-name="Path 1819" d="M377.4,113.943l-2.81,18.26-1.405,1.405-4.212,2.81-15.452,12.641v1.405l-1.4,2.809,1.4,2.81-1.4,15.451L218.68,164.51l1.408-25.284L222.9,70.4l59,1.4,47.756,1.4,56.183,1.4v1.405l-7.02,19.664L376,105.516l1.405,2.809v5.619Z" transform="translate(2896.281 1975.662)" fill="#2a2d3d" stroke="#fff" stroke-width="2"/>
              <path id="Path_1820" data-name="Path 1820" d="M356.8,164.395,344.16,162.99H327.306l-57.59-4.214-59,2.81V133.492l1.405-26.687V96.973h0V78.712H317.473V71.69h35.116l9.833,12.641-4.216,63.209Z" transform="translate(1786.159 2155.568)" fill="#3e25e2" stroke="#fff" stroke-width="2"/>
              <path id="Path_1821" data-name="Path 1821" d="M361.774,109.893l-18.262,12.642-7.023,40.734-102.537-2.81,1.405-40.734H218.5V93.039h23.88l1.4-22.475,47.76-1.4h53.374l-1.405,26.687Z" transform="translate(2871.179 1802.728)" fill="#3e25e2" stroke="#fff" stroke-width="2"/>
              <path id="Path_1838" data-name="Path 1838" d="M358.253,224.817H321.73l-30.9-14.046H248.69V196.724H212.17V61.88H250.1V88.568l42.139,1.4-1.405,2.809-1.405,14.047-2.81,21.069v2.81L281,136.326h-2.811v2.809l5.618,11.237,2.808,4.214,5.621,9.833,4.213,1.4,14.047,7.023H321.73l2.811,1.4,8.428,2.809h2.811v-1.4l14.044,5.619,7.023,5.619h1.408v37.925Z" transform="translate(1988.38 787.438)" fill="#2a2d3d" stroke="#fff" stroke-width="2"/>
              <path id="Path_1839" data-name="Path 1839" d="M215.946,141.608l2.811-8.428v-5.619l-1.405-9.832-1.405-4.214-7.023-12.642-1.4-4.213V89.637l1.4-1.4,1.405-2.81,5.618-1.4L234.207,78.4h1.4l2.81-1.4h12.641l2.81-1.4h1.405l4.213-2.81H260.9l2.808-5.619v-1.4h0l1.4-1.405V60.14l81.467,1.4-1.4,82.873Z" transform="translate(1339.878 544.773)" fill="#2a2d3d" stroke="#fff" stroke-width="2"/>
              <path id="Path_1840" data-name="Path 1840" d="M349.534,65.79h44.949v53.375l-1.4,96.92H206.26l7.026-2.811h0l2.808-1.4h0l4.215-2.81h1.4v-1.4l7.023-4.215,5.62-2.809,5.618-2.808h0l5.618-4.215,5.618-4.214h0l9.833-7.022h0l1.405-1.4h0l4.213-4.214h1.405l1.405-1.4h0l1.405-1.405h0l1.4-1.4h0l1.405-1.405h0l2.808-2.81,1.408-1.4h0l2.807-4.213h0V161.3h0l1.405-1.405h0v-1.4l5.618-11.237h0v-1.4l1.4-1.4,1.405-2.809h0l1.4-4.214h0l1.408-1.4h0l1.4-1.4h0l1.405-2.809,1.4-1.405h0l7.024-11.237,2.807-4.214,2.811-7.023,2.81-2.809,1.4-2.809,4.215-2.81h0V98.1h0l7.023-7.022h1.4v-1.4L338.3,79.836h0l1.405-1.4h0l1.405-1.4h0v-1.4l2.807-1.405v-1.4h0l1.405-1.4h0Z" transform="translate(1164.153 1332.738)" fill="#2a2d3d" stroke="#fff" stroke-width="2"/>
              <path id="Path_1841" data-name="Path 1841" d="M209,66.17H352.266l1.405,85.682-9.834,11.237H207.59Z" transform="translate(1349.639 1385.733)" fill="#2a2d3d" stroke="#fff" stroke-width="2"/>
              <path id="Path_1842" data-name="Path 1842" d="M210.91,57.9h2.807l1.405,2.808,1.4,4.215,9.834,2.809,1.4,1.4L239,71.946l12.641,7.023,9.833,2.81,5.618,2.809v1.4l4.216,1.405h0l23.877,12.642,7.023-1.405,1.408-2.81,2.807-1.4h4.213l4.213,2.809,7.023,1.4,15.451-2.81,12.641,4.215,5.621,2.809,16.854,2.809,4.216,2.809H361.2l1.405,133.44H326.088L210.91,240.5h0V57.9Z" transform="translate(1812.658 232.376)" fill="#df26c7" stroke="#fff" stroke-width="2"/>
              <path id="Path_1858" data-name="Path 1858" d="M213.825,121.256l4.216-50.566,162.935,9.832L358.5,154.967l-18.262-1.4-57.59-7.022v-8.429l-70.232-8.427v-1.4h0l1.405-2.809v-4.214Z" transform="translate(2023.246 2016.105)" fill="#2a2d3d" stroke="#fff" stroke-width="2"/>
              <path id="Path_1859" data-name="Path 1859" d="M230.092,72.4l80.062,5.619h4.213l-1.4,8.428L294.7,229.718h-5.618l-42.138-11.236h-1.4l-4.218-4.213-1.4-2.81v-1.4l-1.405-7.022v-7.024l1.405-1.4-1.405-4.214-22.475-35.116-2.807-2.808-1.405-1.405,1.405-64.613Z" transform="translate(1940.963 2254.587)" fill="#3e25e2" stroke="#fff" stroke-width="2"/>
              <path id="Path_1860" data-name="Path 1860" d="M396,70.174V85.626h0v66.017l-12.641,4.214-9.833,1.4-1.4-1.4h-1.405l-8.428,1.4-2.808,1.405-9.833,8.427V168.5l-60.4-4.215L270.99,150.238l1.405-26.687H219.02V68.77Z" transform="translate(2943.701 1748.336)" fill="#2a2d3d" stroke="#fff" stroke-width="2"/>
              <path id="Path_1861" data-name="Path 1861" d="M215.915,161.266l-1.405-91.3L303,68.56h33.71l-1.405,89.9-40.734,1.405Z" transform="translate(2314.721 1719.049)" fill="#3e25e2" stroke="#fff" stroke-width="2"/>
              <path id="Path_1862" data-name="Path 1862" d="M213.541,84.036V69.99H328.721l1.4,49.162,1.4,87.087H210.73l1.405-1.4V140.222l1.405-15.451v-4.214h0V84.036Z" transform="translate(1787.552 1918.481)" fill="#3e25e2" stroke="#fff" stroke-width="2"/>
              <path id="Path_1863" data-name="Path 1863" d="M370.122,121.762l-4.215,47.756L271.8,165.3l-26.69-1.405h-5.616L238.087,133H214.21V69.79L285.844,72.6l29.495,7.024-1.4,16.856,57.59,2.809-1.405,19.664v2.81Z" transform="translate(2272.885 1890.589)" fill="#2a2d3d" stroke="#fff" stroke-width="2"/>
              <path id="Path_1864" data-name="Path 1864" d="M293.527,69.98h2.81l4.216-1.405h0L299.148,75.6l-1.4,2.808h-4.218L285.1,75.6l-2.807-1.405V72.789l5.618-5.619h4.213v1.4ZM214.87,117.737h14.047l15.451-4.214,9.831-2.809,40.737-4.214,2.81,1.4,8.426,9.833,12.641,8.427,1.405,1.405L338.477,136l14.049,5.618h4.213l5.618,1.4,5.618-2.809,9.833-2.81,9.834-5.619,11.233-4.213h4.216l2.81,44.948-155.914-1.4-2.807-43.544Z" transform="translate(2364.928 1525.196)" fill="#2a2d3d" stroke="#fff" stroke-width="2" fill-rule="evenodd"/>
              <path id="Path_1865" data-name="Path 1865" d="M349.045,180.021l-58.993-4.214-73.042-1.4L214.2,99.957,229.652,81.7H240.89V70.46h5.616l26.69,1.405L367.3,76.079l-5.618,57.591h-8.425l-1.408,2.809Z" transform="translate(2271.489 1984.029)" fill="#2a2d3d" stroke="#fff" stroke-width="2"/>
              <path id="Path_1886" data-name="Path 1886" d="M217.073,189.925l7.021,1.4h7.026l1.405,1.4h4.213l4.215-1.4,7.023-1.4,7.021-1.4,5.621-1.4,12.641-4.214,1.4-4.214v-1.4l-1.4-2.809-1.4-1.405L255,171.665h-4.213v1.4h1.405L255,174.475h0l-5.618-1.405-12.641-4.213h-1.405l-2.808-1.405v-1.4H231.12l-5.618-4.213h0l-5.621-5.619h0l-2.808-5.619-1.405-4.214-2.808-4.214h0v-1.4h0l-1.408-4.214h0v-4.214h0l-1.4-4.213h0v-1.4h0v-1.405h1.4l1.408-2.809h0l1.4-1.4h0l1.405-1.4h0l1.405-1.4h1.405l4.213-5.619h0l1.4-1.4v-1.405h0v-1.4h0l1.408-1.4h1.4l1.405-1.4h0l5.618-1.4h1.405l1.405-1.405,4.215-1.4h2.808l1.405-1.405h1.4v-1.4h1.408V97.219l1.4-1.4h0L256.4,91.6V90.2h0l8.429-7.023h0l1.405-1.4V77.555H264.83v-1.4h0l-1.405-1.405H262.02l-1.4-1.4-2.811-1.4-4.213-1.405h-1.405l-2.81-1.4h-2.81l-2.808-1.4h0l1.405-1.4h0l4.213,1.4h19.664l1.405,1.4h2.81l2.808,1.4h12.641l8.429,1.405h12.641l2.81-1.405h1.4l1.405-2.81h0l1.4-2.809-2.808-1.4-1.4-1.405h0V60.7l4.213-1.4h1.408V57.89l7.02,2.81h2.811l2.811-1.4h0V215.208l-87.089,2.81Z" transform="translate(1692.719 230.982)" fill="#2a2d3d" stroke="#fff" stroke-width="2"/>
              <path id="Path_1887" data-name="Path 1887" d="M211.19,61.52H348.842V165.462L211.19,169.676V61.52Z" transform="translate(1851.706 737.232)" fill="#df26c7" stroke="#fff" stroke-width="2"/>
              <path id="Path_1888" data-name="Path 1888" d="M350.261,64.6l1.4,21.07,4.216,88.491-143.271,1.4L211.2,66h74.447V64.6Z" transform="translate(1853.1 1166.777)" fill="#2a2d3d" stroke="#fff" stroke-width="2"/>
              <path id="Path_1889" data-name="Path 1889" d="M391.179,60.74v8.428l-2.81,12.641v8.428l1.407,2.809v1.4l-4.215,9.833V108.5l1.405,5.618-1.405,2.809h-9.834l-2.811,1.4-8.426,8.428-4.215,1.4-1.4,2.81-1.405,4.213-1.4,1.4-4.213,1.405-1.405-2.81h0l-4.213-1.4h-1.405l-4.216-1.4-7.023,1.4-2.807,1.4-4.213,2.81-4.215,4.213-4.216,7.023v5.619l-1.4,4.213-2.811,9.832L214.2,170.3,212.79,60.74Z" transform="translate(2074.846 628.451)" fill="#df26c7" stroke="#fff" stroke-width="2"/>
              <path id="Path_1934" data-name="Path 1934" d="M394.947,176.346l-73.041-1.4-108.155,1.4L210.94,66.784h37.926l143.271-1.4h2.81Z" transform="translate(1816.84 1275.558)" fill="#df26c7" stroke="#fff" stroke-width="2"/>
              <path id="Path_1935" data-name="Path 1935" d="M359.874,169.521H209.58V75.411L222.221,59.96l139.06,1.405Z" transform="translate(1627.171 519.67)" fill="#df26c7" stroke="#fff" stroke-width="2"/>
              <path id="Path_1936" data-name="Path 1936" d="M208.56,63.45H357.451v54.781l1.405,108.156-74.444,1.405H211.371l-1.4-68.828-1.408-14.046V63.45Z" transform="translate(1484.918 1006.395)" fill="#df26c7" stroke="#fff" stroke-width="2"/>
              <path id="Path_1937" data-name="Path 1937" d="M213.74,97.081l33.711-4.213V66.18l73.039-2.81V77.417h36.521l1.405,40.734,4.216,81.468h-5.621l-7.02,1.405H326.108l-109.56,2.81Z" transform="translate(2207.336 995.238)" fill="#df26c7" stroke="#fff" stroke-width="2"/>
              <path id="Path_1938" data-name="Path 1938" d="M359.676,64.58l1.405,28.092,5.615,82.874-88.488,1.4h-60.4l-4.216-88.491-1.4-21.069,73.042-1.405Z" transform="translate(1991.169 1163.988)" fill="#df26c7" stroke="#fff" stroke-width="2"/>
              <path id="Path_1940" data-name="Path 1940" d="M220.161,204.793,218.756,178.1v-9.832l-4.216-73.04V67.139h23.882l7.02-1.405h5.621l75.847-1.4,9.833,67.422h-5.618l-8.428,4.213-2.811,4.215-5.618,1.4-2.807-1.4h-1.405l-5.62,4.214-2.808,4.213,1.405,4.214,1.4,1.4,7.026,2.809,1.405,1.405-1.405,1.4,1.405,2.809,1.4,4.214v1.4h-1.4l-1.405-1.4H297.415l-2.81,2.81-1.4,1.4v2.81l-2.81,1.405h0l-5.621,5.619-1.4,7.023-1.405,9.832,4.216,5.619Z" transform="translate(2318.905 1129.123)" fill="#2a2d3d" stroke="#fff" stroke-width="2"/>
              <path id="Path_1941" data-name="Path 1941" d="M207.23,167.471l2.81-2.809h0l5.618-7.023,2.81-4.214h0v-1.4l1.405-2.81,1.4-4.214,5.618-4.213h0l2.81-4.215v-1.4h0v-1.4h1.405v-1.4h0l2.808-2.809h0l1.405-2.81,9.833-11.237,4.213-18.261,1.405-5.619V87.408l-1.405-5.619,1.405-4.213V71.957h0l1.405-1.4,1.405-4.214,2.808-5.619,129.227,2.81-1.405,108.155H315.387Z" transform="translate(1299.434 625.661)" fill="#2a2d3d" stroke="#fff" stroke-width="2"/>
              <path id="Path_1942" data-name="Path 1942" d="M314.174,178.489l-14.046,1.405H255.181l-8.429,1.405h-29.5L213.04,68.929h74.447l75.849-2.809,33.713,19.665,1.4,4.213-1.4,2.809h-1.407l-5.615,1.405v2.808l-2.811,1.405h-2.81v1.405H383l-5.615,4.213h0l-1.408,2.81-1.4,1.4h0v1.4h0v1.405l-2.81,2.808h-1.4l-4.213-1.4h-5.621v1.4h-1.4l-2.811,1.405L353.5,119.5h0l-1.4,2.809-1.405,1.4h0v4.214h0v1.405h0l-1.405,4.213-5.618,2.81-2.81,1.4-1.4-2.808h-2.81v1.4l-2.811,2.809-1.4,1.405-1.405,1.4-2.81,5.618-1.4,1.4-2.811,1.4h0L322.6,151.8h-2.807v1.4h-1.408l-1.4,1.4v4.214h0v2.81l1.4,5.617h0l1.408,1.405h0v1.405h0l1.4,1.4v1.4h0l1.405,1.405v2.81h-2.807l-5.621,1.4Z" transform="translate(2109.711 1378.761)" fill="#2a2d3d" stroke="#fff" stroke-width="2"/>
              <path id="Path_1983" data-name="Path 1983" d="M256.771,206.218l-35.116,1.405-5.616-82.874-1.4-28.092L213.23,69.969l74.444-2.809,109.56-2.81V92.443l4.216,73.04v9.832L402.855,202l-64.614,1.4h-8.429l-36.518,1.4Z" transform="translate(2136.209 1131.911)" fill="#df26c7" stroke="#fff" stroke-width="2"/>
              <path id="Path_1985" data-name="Path 1985" d="M211.71,59.97h151.7V168.126l-150.294,1.4Z" transform="translate(1924.229 521.065)" fill="#2a2d3d" stroke="#fff" stroke-width="2"/>
              <path id="Path_1986" data-name="Path 1986" d="M421.012,90.933l1.4,80.064H347.97l1.4,28.093-137.652,1.4V95.147l61.805-5.619,1.4-26.688h36.52V76.887h42.139l30.9,14.046Z" transform="translate(1925.622 921.323)" fill="#df26c7" stroke="#fff" stroke-width="2"/>
              <path id="Path_1987" data-name="Path 1987" d="M369.28,63.73h0v1.4h0l1.4,1.4,1.4,2.81v1.4h0v1.405h0v1.4h0l1.4,4.214v1.4h0l1.405,4.214h0l4.215,5.619,4.213,8.428h0l2.81,2.809,1.4,2.81,7.023,9.832,1.4,1.4-9.831,21.069-1.405,4.214-5.618,11.237L374.9,199.978l-8.426,29.5-2.81,7.023-1.405,2.81L344,256.163h-1.408l-5.615,1.4-5.618-2.81L314.5,266h-2.807v-2.809l2.807-1.4,2.808-1.4,1.405-2.809-5.618-2.81v-5.618l-1.4-4.215h-4.218l-2.807-1.4-1.405-1.4,4.213-2.809,5.62-1.405v-2.81l-2.81-1.4v-1.405l7.022-2.808,7.026,1.4,5.615-2.809,1.408-1.405v-5.619l-1.408-2.808-1.4-1.405h-8.429l-4.213-2.809-4.213-1.4h-4.218l-1.4,2.809h-1.4l-9.834-67.422-75.847,1.4L214.77,67.943Z" transform="translate(2350.983 1045.444)" fill="#2a2d3d" stroke="#fff" stroke-width="2"/>
              <path id="Path_1988" data-name="Path 1988" d="M214.613,221.2l-1.4-80.064V103.214l9.831,2.809h0l4.213-2.809,11.239-9.833,7.023-5.619,9.83-11.237h2.811l1.4-2.809v-2.81l2.811-1.4,5.621-2.81,2.808-1.4v1.4l2.811,1.405,8.425-1.405,2.81-2.808,1.4-1.4V82.145L394.4,79.335l4.216,108.156H394.4l-73.039,2.81v26.688L287.654,221.2Z" transform="translate(2133.422 871.116)" fill="#2a2d3d" stroke="#fff" stroke-width="2"/>
              <path id="Path_2028" data-name="Path 2028" d="M252.23,174.951V121.576H207.28l2.811-4.214,11.239-16.856,7.02-15.451,4.215-11.237V71.009l2.808-2.808,1.4-1.4L395.5,65.39V174.951Z" transform="translate(1306.407 1276.952)" fill="#2a2d3d" stroke="#fff" stroke-width="2"/>
              <path id="Path_2029" data-name="Path 2029" d="M213.54,70.939l36.524-1.405,36.518-1.4h8.428l64.614-1.4,66.018-1.4h0l-4.215,14.046-1.405,2.81-1.405,2.809-1.4,1.4L411.593,89.2h-1.4l-2.811,5.619,1.4,1.405-11.233,4.213-8.431,2.809h-9.831l-14.047,4.215-4.215,2.808-5.615,5.619-9.834,16.856-1.405,11.237v8.428l2.811,11.236-2.811,15.452-8.429,1.4-2.807,2.81v1.4l-5.618,1.4-1.408,1.4h1.408v9.832h0L293.605,177.69l-75.85,2.809-1.405-28.092-1.4-54.781Z" transform="translate(2179.444 1267.19)" fill="#df26c7" stroke="#fff" stroke-width="2"/>
              <path id="Path_2147" data-name="Path 2147" d="M271.118,146.755l-1.4-1.4-16.856-7.024-1.405-1.4-9.831-9.833-4.213-2.808h-7.026l-2.807,2.808-7.023,7.024-9.834,2.809V91.974h0V75.12l59-2.81,57.59,4.213H344.16L356.8,77.929,384.9,84.952,368.04,99l-1.405,64.613-1.4-2.809-33.714-19.664-19.664-2.81-2.811,1.405h0l-1.4,1.4h0l-29.5,5.617h-7.023Z" transform="translate(1786.159 2242.035)" fill="#3e25e2" stroke="#fff" stroke-width="2"/>
              <path id="Path_2148" data-name="Path 2148" d="M368.744,73.564l-7.023,33.712,12.641,22.473-9.833,43.543L292.892,184.53H212.83l1.405-71.636,25.283-4.214,60.4-36.52h67.421Z" transform="translate(2080.426 2221.117)" fill="#3e25e2" stroke="#fff" stroke-width="2"/>
              <path id="Path_2149" data-name="Path 2149" d="M217.93,159.21l-2.81-80.064V67.91l155.914,1.4,1.405,68.827h-30.9l1.405,22.473-91.3-1.4Z" transform="translate(2399.794 1628.4)" fill="#2a2d3d" stroke="#fff" stroke-width="2"/>
              <path id="Path_2150" data-name="Path 2150" d="M320.475,132.659v4.214l2.811,7.024,2.807,12.641-1.405,4.213-4.212,8.429-5.619,7.022-2.811,1.4-2.81,1.405-9.83,18.26-5.621,9.832L237.6,205.7l5.618-81.469-23.88-1.4,7.023-40.734L244.625,69.45l60.4,4.215v2.809l18.262,26.688,2.807,2.809-4.212,14.046Z" transform="translate(2988.327 1843.171)" fill="#3e25e2" stroke="#fff" stroke-width="2"/>
              <path id="Path_2151" data-name="Path 2151" d="M312.089,210.994h-4.213L295.235,212.4,285.4,206.78,262.927,181.5v-1.405l-8.429-8.427-1.4-2.81-8.429-4.214h-2.81l-18.259-1.4h-2.807l-5.621-2.81L239.047,152l-7.024-25.284h18.262L267.14,73.34h8.431l15.452,1.4-2.811,21.07,30.9,1.4,4.216,28.092,36.518,2.81-2.811,28.092h23.883l-1.408,1.405-1.4,2.809,1.4,2.81-1.4,7.022-5.62,22.475-1.4,4.213-1.405,1.405-2.81,1.4-2.808,1.405Z" transform="translate(2406.766 2385.682)" fill="#3e25e2" stroke="#fff" stroke-width="2"/>
              <path id="Path_2152" data-name="Path 2152" d="M335.6,70.219,334.2,117.976l29.5,2.81v21.07H334.2v23.879H303.3L301.893,185.4H272.4v22.475h-51.97l-1.405-68.828L216.21,94.1h21.069l4.213-1.405h4.216l19.664-9.832,1.405-1.4V80.051H273.8l22.475-7.023,25.282-5.618h5.618Z" transform="translate(2551.811 1558.668)" fill="#2a2d3d" stroke="#fff" stroke-width="2"/>
              <path id="Path_2153" data-name="Path 2153" d="M396,68.26h0v2.808h0V86.52h0V141.3L219.02,139.9V128.659h0v-1.4h0V113.208h26.688V68.26H396Z" transform="translate(2943.701 1677.211)" fill="#2a2d3d" stroke="#fff" stroke-width="2"/>
              <path id="Path_2154" data-name="Path 2154" d="M213.83,74.829l36.518-4.214h60.4l78.66-1.4V87.47h-30.9v49.163l-19.665,16.855-71.634-2.808V131.014H213.83l1.4-2.81Z" transform="translate(2219.887 1809.701)" fill="#2a2d3d" stroke="#fff" stroke-width="2"/>
              <path id="Path_2267" data-name="Path 2267" d="M295.833,68.73h0V178.291H212.96L210.15,70.134Z" transform="translate(1706.663 1742.759)" fill="#2a2d3d" stroke="#fff" stroke-width="2"/>
              <path id="Path_2481" data-name="Path 2481" d="M358.188,104.077l-2.81,42.139,42.139,14.046v18.26l-5.618,7.024-4.215,1.4v1.4l-161.532-7.022,1.4-15.451h0v-1.4l1.405-11.238H216.32l2.807-28.093,2.811-28.093,36.52,2.81,1.405-28.093,35.116,1.4-2.81,28.093Z" transform="translate(2567.15 2166.725)" fill="#3e25e2" stroke="#fff" stroke-width="2"/>
              <path id="Path_2482" data-name="Path 2482" d="M364.156,84.216l18.262,1.405-4.213,35.116-2.811,32.307L212.46,143.211l4.213-44.948L219.48,70.17Z" transform="translate(2028.824 1943.584)" fill="#2a2d3d" stroke="#fff" stroke-width="2"/>
              <path id="Path_2528" data-name="Path 2528" d="M219.361,161.061l1.405-22.474H216.55l4.216-67.423v-1.4l147.486,4.214V96.447l29.494,1.405-1.4,46.353-29.5,21.07h0Z" transform="translate(2599.226 1886.406)" fill="#2a2d3d" stroke="#fff" stroke-width="2"/>
              <path id="Path_2529" data-name="Path 2529" d="M222.133,117.262l2.808-43.543,1.408-2.809h8.426l61.806,2.809L331.7,76.528l2.807-2.809-2.807,29.5,23.877,1.405,7.023,56.185L326.075,158l-2.808,18.261-37.926-1.4V188.9l-35.116,2.809-35.116-1.4Z" transform="translate(2398.401 2046.788)" fill="#2a2d3d" stroke="#fff" stroke-width="2"/>
              <path id="Path_2621" data-name="Path 2621" d="M212.46,174.951l-1.4-54.781L209.65,66.8V65.39h181.2l2.811,109.561H212.46Z" transform="translate(1636.932 1276.952)" fill="#fc7c00" stroke="#fff" stroke-width="2"/>
              <path id="Path_2622" data-name="Path 2622" d="M359.544,59.97l1.4,109.561-150.3-1.4L212.058,59.97Z" transform="translate(1776.395 521.065)" fill="#df26c7" stroke="#fff" stroke-width="2"/>
              <path id="Path_2623" data-name="Path 2623" d="M214.092,91.7l-1.4-28.093H360.176l2.808,106.753-74.444,2.809,1.405,26.688-74.444,1.4-1.408-30.9Z" transform="translate(2060.901 1028.709)" fill="#2a2d3d" stroke="#fff" stroke-width="2"/>
              <path id="Path_2657" data-name="Path 2657" d="M344.14,181.34H332.907l-115.181,2.808V170.1l-4.216-5.619h-1.4L210.7,67.565h36.524l108.155-1.4,1.405,115.18H344.14Z" transform="translate(1783.368 1384.34)" fill="#fc7c00" stroke="#fff" stroke-width="2"/>
              <path id="Path_2658" data-name="Path 2658" d="M482.015,181.113l-160.13,4.214-108.155,2.81v-21.07l1.405-2.809,7.02-5.619v-1.4l-1.4-1.405-1.405-1.4,2.808-4.214L226.371,146h2.808l1.408-1.4v-5.619l1.4-2.81,5.618-1.4v-2.81l9.833-4.214,8.429-7.023V116.5l-1.405-1.405-1.405-1.4h-2.807v-2.809l2.807-1.4h7.023l2.811-1.405,8.428-5.619,4.213-5.618,1.4-2.809V92.622l11.238-2.809,9.834-1.4,4.213,1.4L313.459,87,316.27,85.6l5.615-2.809h16.857l1.4-1.4,4.213-2.81,5.617-7.022,1.408-1.405,8.426-1.4h2.807l7.023-5.619h2.81V64.53h2.81l5.618-2.81h4.213l8.428,5.618,4.213,2.81,14.049,1.405,11.236,5.618,2.81,2.809,1.4,1.405h5.618l5.62,4.213,1.4,1.405,4.215,5.618,4.213,7.024h1.405l5.618,9.832,4.216,11.237,7.023,4.214,4.213,5.619v1.4h-1.4v1.4l1.4,1.405,2.81,1.4L477.8,155.83v4.213l1.405,2.81,1.405,2.809Z" transform="translate(2205.941 765.125)" fill="#df26c7" stroke="#fff" stroke-width="2"/>
              <path id="Path_2659" data-name="Path 2659" d="M361.266,60.74l-1.4,28.092,1.4,81.469L286.822,168.9H209.57l1.4-108.156Z" transform="translate(1625.778 628.451)" fill="#2a2d3d" stroke="#fff" stroke-width="2"/>
              <path id="Path_2660" data-name="Path 2660" d="M211.71,167.357,214.518,60.6h36.521l115.178-1.4-2.811,108.157Z" transform="translate(1924.229 413.678)" fill="#2a2d3d" stroke="#fff" stroke-width="2"/>
              <path id="Path_2661" data-name="Path 2661" d="M211.72,62.145l150.293-1.4L363.421,170.3H211.72l1.405-4.213Z" transform="translate(1925.622 628.451)" fill="#2a2d3d" stroke="#fff" stroke-width="2"/>
              <path id="Path_2662" data-name="Path 2662" d="M362.332,167.357H214.846L210.63,85.888l39.332,1.4V59.2l115.178,1.4Z" transform="translate(1773.608 413.678)" fill="#df26c7" stroke="#fff" stroke-width="2"/>
              <path id="Path_2663" data-name="Path 2663" d="M208.56,163.089l9.834-11.237-1.4-85.682H364.474v96.919H208.56Z" transform="translate(1484.918 1385.733)" fill="#fc7c00" stroke="#fff" stroke-width="2"/>
              <path id="Path_2798" data-name="Path 2798" d="M371.39,108.9v12.642l-1.4,1.4H301.158v26.688H207.05l1.4-81.469h120.8l1.405,26.688Z" transform="translate(1274.331 1664.659)" fill="#fc7c00" stroke="#fff" stroke-width="2"/>
              <path id="Path_2799" data-name="Path 2799" d="M208.4,97.412V70.725h70.231l59-1.405V97.412l1.4,59H305.322l-8.429-1.4h-2.81l-85.683,1.4v-59Z" transform="translate(1462.604 1825.042)" fill="#2a2d3d" stroke="#fff" stroke-width="2"/>
              <path id="Path_2800" data-name="Path 2800" d="M321.728,162.251l-43.542,9.832h-60.4l-8.428-9.832-2.811-73.04V70.95H321.728v91.3Z" transform="translate(1204.6 2052.365)" fill="#fc7c00" stroke="#fff" stroke-width="2"/>
              <path id="Path_2801" data-name="Path 2801" d="M339.057,136.932v14.046l-129.227,1.4V129.909h4.215l1.4-59,42.139-1.4h82.873v32.306l-1.4,35.116Z" transform="translate(1662.036 1851.54)" fill="#2a2d3d" stroke="#fff" stroke-width="2"/>
              <path id="Path_2802" data-name="Path 2802" d="M320.355,74.424l11.239-1.4,1.4,71.636-9.831,23.878H206.58V73.02h33.713Z" transform="translate(1208.783 2341.053)" fill="#fc7c00" stroke="#fff" stroke-width="2"/>
              <path id="Path_2803" data-name="Path 2803" d="M333.477,80.132l1.4,82.873H207.06V67.49H333.477V80.132Z" transform="translate(1275.725 1569.824)" fill="#fc7c00" stroke="#fff" stroke-width="2"/>
              <path id="Path_2804" data-name="Path 2804" d="M208.86,95.473V68.785L353.535,67.38v82.874h-36.52l-71.637-1.405-35.116-8.428Z" transform="translate(1526.758 1554.483)" fill="#fc7c00" stroke="#fff" stroke-width="2"/>
              <path id="Path_2805" data-name="Path 2805" d="M322.333,168.87,205.75,167.464V112.684h35.116V71.95l80.065,1.4h16.854V111.28l-16.854,4.214Z" transform="translate(1093.029 2191.828)" fill="#fc7c00" stroke="#fff" stroke-width="2"/>
              <path id="Path_2806" data-name="Path 2806" d="M205.84,152.549l1.405-81.469h98.324l2.811,73.041,8.428,9.832-8.428,40.734-80.065-1.4H205.84Z" transform="translate(1105.58 2070.496)" fill="#fc7c00" stroke="#fff" stroke-width="2"/>
              <path id="Path_2807" data-name="Path 2807" d="M292.478,181.011H208.2V152.918h0V71.45h99.729l1.4,77.255v32.307Z" transform="translate(1434.712 2122.097)" fill="#fc7c00" stroke="#fff" stroke-width="2"/>
              <path id="Path_2808" data-name="Path 2808" d="M205.66,96.218V69.53H330.671V177.687H207.063V96.218Z" transform="translate(1080.477 1854.329)" fill="#2a2d3d" stroke="#fff" stroke-width="2"/>
              <path id="Path_2845" data-name="Path 2845" d="M251.044,239.006H204.69V227.769h0V153.323h0v-29.5h0V116.8h0v-4.214h0V70.45h0l39.331,7.023-4.215,54.781,19.664,28.092L246.829,224.96Z" transform="translate(945.198 1982.634)" fill="#2a2d3d" stroke="#fff" stroke-width="2"/>
              <path id="Path_2906" data-name="Path 2906" d="M250.039,72.23h84.278l-1.405,49.162h0v18.26L297.8,141.057v18.26l-19.667,8.428-67.421-2.81v-30.9l-2.808-60.4h1.405Z" transform="translate(1392.871 2230.879)" fill="#fc7c00" stroke="#fff" stroke-width="2"/>
              <path id="Path_2907" data-name="Path 2907" d="M337.429,178.311H271.411V137.576H225.059L206.8,123.53V68.75H336.024Z" transform="translate(1239.467 1745.548)" fill="#2a2d3d" stroke="#fff" stroke-width="2"/>
              <path id="Path_2908" data-name="Path 2908" d="M216.486,185.589,205.25,139.238l11.236-39.329,15.451,1.4,29.5-28.093h60.4l-5.618,26.689v98.323l-46.352-4.213Z" transform="translate(1023.296 2368.946)" fill="#fc7c00" stroke="#fff" stroke-width="2"/>
              <path id="Path_2909" data-name="Path 2909" d="M292.525,152.719l-81.467,1.4L209.65,71.25h25.285l11.239,22.475h46.351Z" transform="translate(1636.932 2094.205)" fill="#2a2d3d" stroke="#fff" stroke-width="2"/>
              <path id="Path_2910" data-name="Path 2910" d="M250.159,148.745,208.02,100.987V74.3h12.641l57.59,4.214L293.7,95.369l-9.834,19.665-8.426,1.4-1.405,1.4h-2.811l-21.066,29.5Z" transform="translate(1409.609 2519.567)" fill="#2a2d3d" stroke="#fff" stroke-width="2"/>
              <path id="Path_2980" data-name="Path 2980" d="M228.828,188.278,217.59,160.186l4.216-68.826L251.3,70.29l88.49,1.4V85.741H374.91L372.1,154.567H324.345l-23.883,16.856H263.944v18.26Z" transform="translate(2744.267 1960.321)" fill="#3e25e2" stroke="#fff" stroke-width="2"/>
              <path id="Path_2981" data-name="Path 2981" d="M246.9,167.2V85.73H211.78V67.47H355.053V89.943l1.4,77.255Z" transform="translate(1933.989 1567.036)" fill="#fc7c00" stroke="#fff" stroke-width="2"/>
              <path id="Path_2982" data-name="Path 2982" d="M215.32,162.206V159.4l1.405-19.664,30.9,1.4,7.023-63.209,77.252-1.4,12.644-1.4L381.065,70.9l12.641-1.4-1.4,36.52v1.4l-4.215,67.423H347.355l-11.238-1.4L301,166.419Z" transform="translate(2427.689 1850.145)" fill="#2a2d3d" stroke="#fff" stroke-width="2"/>
              <path id="Path_2983" data-name="Path 2983" d="M357.185,166.5,212.51,152.453l4.213-66.018,1.408-15.451,36.518-1.4L367.019,80.817Z" transform="translate(2035.796 1861.302)" fill="#2a2d3d" stroke="#fff" stroke-width="2"/>
              <path id="Path_2984" data-name="Path 2984" d="M309.3,67.94h60.4V90.414L368.3,157.836l-137.653-1.405H216.6l1.4-22.473V111.483h29.5l1.405-19.665h30.9V67.94h29.5Z" transform="translate(2606.202 1632.583)" fill="#2a2d3d" stroke="#fff" stroke-width="2"/>
              <path id="Path_2985" data-name="Path 2985" d="M288.457,171.018l-66.019-2.809,2.811-28.092,7.02-54.781L216.82,71.29,334.809,75.5l18.259,1.4-1.4,26.687L369.924,105l-1.405,23.879H329.19L332,161.186l-36.518-2.809Z" transform="translate(2636.884 2099.783)" fill="#2a2d3d" stroke="#fff" stroke-width="2"/>
              <path id="Path_2986" data-name="Path 2986" d="M339.547,121.5,355,135.543l-7.02,54.781-35.116-1.405-68.826-12.641,2.808-18.26-7.023-56.185-23.877-1.405,2.807-29.5,71.637,5.619,22.474,1.405-2.81,28.092,30.9,1.405Z" transform="translate(2514.155 2049.577)" fill="#3e25e2" stroke="#fff" stroke-width="2"/>
              <path id="Path_2987" data-name="Path 2987" d="M229.912,69.585l35.115-1.4h109.56v77.255l-71.634,5.618v12.642L229.912,165.1l-16.854-14.047-1.408-26.687,18.262-1.405Z" transform="translate(1915.858 1666.053)" fill="#2a2d3d" stroke="#fff" stroke-width="2"/>
              <path id="Path_2988" data-name="Path 2988" d="M310.386,69.174v66.018h0v46.353l-8.425,25.284H286.509l-56.185-2.81h0L217.68,181.546l1.408-67.423V91.649h29.495L245.775,67.77h1.4l44.949,1.4h18.259Z" transform="translate(2756.819 1608.874)" fill="#3e25e2" stroke="#fff" stroke-width="2"/>
              <path id="Path_2989" data-name="Path 2989" d="M324.1,177.036l-80.062-5.619-28.1-7.023,1.405-16.855,4.216-63.209L211.73,71.69,266.51,74.5,290.387,75.9l42.141,2.809-2.808,39.329Z" transform="translate(1927.016 2155.568)" fill="#2a2d3d" stroke="#fff" stroke-width="2"/>
              <path id="Path_3148" data-name="Path 3148" d="M244.021,179.281l-39.331-7.023V139.952h0L206.1,73.934V69.72H342.343v33.711l-47.757,18.26-15.449,16.856-5.62,1.4-8.428,8.428-30.9,18.26Z" transform="translate(945.198 1880.827)" fill="#fc7c00" stroke="#fff" stroke-width="2"/>
              <path id="Path_3149" data-name="Path 3149" d="M336.247,157.857l-68.826,2.81H221.068L209.83,138.193l5.617-67.423h122.2V96.054l-1.4,1.4v8.428h0v12.642h0v2.808h0v36.521Z" transform="translate(1662.036 2027.262)" fill="#2a2d3d" stroke="#fff" stroke-width="2"/>
              <path id="Path_3153" data-name="Path 3153" d="M336.627,150.14l-2.81,5.619v7.022l1.4,8.429v4.213l-1.4,4.214-1.405,5.619L329.6,197.9l-2.811,2.811-4.215,2.808h-1.4l-1.4,1.405-14.047,2.809-9.833,1.4-44.946-5.619h-1.405L235.493,197.9l-14.046-9.832-1.405-2.809-2.807-7.023,1.4-4.214,1.405-8.427-4.213-4.214H207.4L225.659,74.29l68.829,1.4v26.687Z" transform="translate(1323.143 2518.171)" fill="#fc7c00" stroke="#fff" stroke-width="2"/>
              <path id="Path_3154" data-name="Path 3154" d="M222.119,81.966l28.09-14.046,50.567,19.665,12.641-4.214v19.665h0V184.5l-18.259,22.475-35.116,1.4v30.9H208.07L205.26,88.99l15.451-5.619Z" transform="translate(1024.69 1629.793)" fill="#2a2d3d" stroke="#fff" stroke-width="2"/>
              <path id="Path_3155" data-name="Path 3155" d="M300.246,162.881l-40.733,1.4H207.54v-91.3h64.614l28.093-1.4v63.208h0v28.093Z" transform="translate(1342.666 2140.228)" fill="#2a2d3d" stroke="#fff" stroke-width="2"/>
              <path id="Path_3156" data-name="Path 3156" d="M268.844,90.066h-1.405l-4.213-1.405-1.405-1.4,4.216-9.833,4.213-4.214h89.9l43.544,1.4-29.5,28.093-15.452-1.4L347.5,140.633l11.236,46.352-68.826,2.81-42.139,26.688L204.23,227.719l25.285-33.711-4.213-7.024h0l5.618-7.023,8.426-12.642,1.408-9.833,7.02-7.022,1.405-1.4,4.216-2.809,12.641-1.405,2.808-1.4,4.215-4.214,5.618-19.664,1.4-7.024L270.249,91.47v-1.4Z" transform="translate(881.044 2367.552)" fill="#fc7c00" stroke="#fff" stroke-width="2"/>
              <path id="Path_3157" data-name="Path 3157" d="M204.7,142.82V69.779l1.405-1.4v-1.4l2.808,2.809,1.405,1.4,1.405,1.405,9.834,7.022,2.808-1.4,2.81,1.4h5.618v1.405H234.2v1.4l-1.405,2.809,2.808,2.81h1.405l8.429,2.809,9.834,1.405,12.641,2.808h19.664l12.644-1.4v120.8l-1.408,1.4-15.451,5.619-43.541,16.856-35.116-1.4V196.2h0V142.82Z" transform="translate(946.592 1497.304)" fill="#fc7c00" stroke="#fff" stroke-width="2"/>
              <path id="Path_3158" data-name="Path 3158" d="M205.67,151.767h0V70.3H329.279V179.861H230.955l-25.285-1.4Z" transform="translate(1081.87 1961.715)" fill="#fc7c00" stroke="#fff" stroke-width="2"/>
              <path id="Path_3185" data-name="Path 3185" d="M283.357,68.07l2.811,150.3H204.7V173.417h0V132.683h0V86.33h0V83.521l35.116,1.4Z" transform="translate(946.592 1650.713)" fill="#fc7c00" stroke="#fff" stroke-width="2"/>
              <path id="Path_3289" data-name="Path 3289" d="M389.776,59.97v1.4h0l1.4,1.4,1.4,1.4h0v1.4h1.405v1.4l2.811,1.4v4.214l1.4,7.023h0v1.4h0v2.81l-1.4,7.022h0v1.405h0v1.4h0v1.4h1.4l1.405,4.214h0v1.4l1.405,1.4h1.405l1.4,1.4v1.405h1.405l-1.405,2.809h0v1.4h0v4.214l-1.4,1.4h0l-1.405,5.619v1.4h-1.405v1.4l-1.405,2.809-4.213,4.214v2.81h0l-1.405,4.213h0l-1.4,2.81h0v1.4h0v1.4l1.4,5.618h0v1.405h0v1.4h0l1.405,4.214v1.4h0V159.7h0l-1.405,1.4h0l-1.4,5.619h0v1.405H212.79V59.97Z" transform="translate(2074.846 521.065)" fill="#df26c7" stroke="#fff" stroke-width="2"/>
              <path id="Path_3292" data-name="Path 3292" d="M367.877,195.429H314.5l-81.468-1.4L234.437,187l1.405-5.619v-4.214l-1.405-9.832-1.405-5.619,1.405-4.214,1.405-2.81,1.405-1.4,7.021-1.4,2.811,2.809,2.81,1.4,2.811,1.4,5.617-1.4,4.213-1.4,2.811-2.809,1.4-4.214,1.405-2.809,2.811-1.405,2.807-4.213,1.405-2.809,2.811-1.4h4.213l5.62,2.809,2.808,1.4,2.81,4.213,2.808,1.405h5.618l5.621-1.405,5.618-1.4,2.81-1.4,8.426-8.428,1.4-1.4V125.2l1.405-4.214,2.808-2.809,5.621-8.428,1.4-1.405,8.429-2.809,5.62-4.213,4.213-4.214,2.81-4.214V88.677l5.618-8.428L374.9,67.608h1.405l1.405,1.4h8.428l5.616-4.213,1.408-1.405,2.807-4.214h4.213L404.4,66.2l-1.4,4.213-2.81,1.405-4.213,1.4-2.807,2.81h0v1.4h-8.431l-4.213,1.4-4.213,7.023,1.405,4.214,8.428,12.642,2.808,1.4,2.808,2.81v4.213l-1.4,1.405-1.405-1.405-7.023,1.405-1.4,5.618-2.808,2.809-2.81,2.81,4.213,4.213h0l1.405,5.619v14.047l-5.618,1.4-1.405,1.405-4.216,9.832-2.807,1.4v2.81l-1.405,8.428v5.618l2.811,5.619,1.4,7.023-1.4,4.214Zm-140.462-73.04-7.023,2.809-5.618,1.4-7.023-1.4v-5.619l4.213-7.022h1.405l5.618-2.81,8.429,2.81,4.213,2.809h-5.618l-1.405,1.4v2.809Zm18.262-46.353H254.1l4.215,1.4,1.4,1.4,4.213,2.81v5.619l-1.4,2.809-1.4,8.428v1.4l2.807,2.809v2.809l-7.02,2.809-4.213-2.809-2.811-2.809-5.621-4.214L240.055,95.7l-2.808-1.4v-1.4l-1.405-11.237,1.405-4.214,2.808-1.4h5.621Z" transform="translate(1371.954 410.889)" fill="#2a2d3d" stroke="#fff" stroke-width="2" fill-rule="evenodd"/>
              <path id="Path_3293" data-name="Path 3293" d="M233.637,173.85v-5.618h0v-1.405h0l-1.4-2.81v-1.4h0v-1.405l-4.216-9.832h0v-8.428h0v-1.4l-1.4-2.809-1.405-2.81-1.4-9.832h-1.4l-5.618-8.428v-1.4h0l-5.621-5.619v-1.4h-1.4l-1.405-2.81-1.405-4.214V99.405h0l1.405-2.81h0l2.808-2.809h1.405L221,88.168l4.213-2.809,2.81-1.4h0l5.618-4.214,1.405-1.4h0l1.405-1.4h0l5.618-8.428,1.405-1.4h0V65.693l2.808-4.213,108.158,4.213,1.4,108.157v1.4l-117.989-1.4Z" transform="translate(1260.384 731.653)" fill="#df26c7" stroke="#fff" stroke-width="2"/>
              <path id="Path_3309" data-name="Path 3309" d="M400.39,61.51h0v1.405h0l-1.405,1.4v4.214h0v4.213h0v2.81h0l-1.4,5.619-4.213,4.213-1.408,2.81v2.809l2.811,4.214-5.618,1.4-7.023-1.4-8.428,1.4-9.831,5.619-1.405,4.214,1.405,8.428h-8.429L344.2,116.292h-1.4l-2.81,1.4h-9.834l-12.641-1.4h0L311.9,119.1h-1.4v1.4h-1.405v1.4h-1.4v1.405l-2.81,1.4h0l-2.81,1.405h0v1.4h0l-1.4,2.809h0l-1.408,2.81-1.4,4.213-4.213,1.405-1.405,2.809-42.139-1.4V113.482H212.17V62.915h88.493Z" transform="translate(1988.38 735.837)" fill="#2a2d3d" stroke="#fff" stroke-width="2"/>
              <path id="Path_3323" data-name="Path 3323" d="M249.02,156.546H219.525v-9.832l-1.405-8.428v-1.4h1.405l2.808-2.81,2.81-2.808,5.618-4.214,1.4-1.4v-1.405h1.4v-1.4h1.408l1.4-1.405L242,117.217H243.4l1.405-1.405h1.405L250.429,113h0l1.4-1.405,2.811-1.405h0l1.4-1.4h0l5.618-2.809,7.023-2.809,5.62-2.81h1.405l1.4-1.405,4.216-2.808h2.808l4.216,1.4h1.405v-1.4h4.213l14.046-5.619h0l2.811-1.405,2.807-1.4h0l5.618-1.405L333.3,79.291l2.811-1.4h4.214l1.4-1.405h0l14.047-4.213,8.428-2.81,4.213-2.808h2.81l-1.405,40.734v2.808h-30.9l1.407,23.879h-60.4l-1.405,22.475Z" transform="translate(2818.182 1452.676)" fill="#2a2d3d" stroke="#fff" stroke-width="2"/>
              <path id="Path_3324" data-name="Path 3324" d="M347.642,66.92l-1.405,1.405,2.811,5.619v1.4l11.239,5.617,5.617-1.4,5.616,2.809,5.62-1.405,4.213-1.4,1.405-1.405v-1.4h4.213l8.431,5.619,1.4,1.4h0l1.405,1.405h1.4l2.808,1.4L413.661,92.2l2.807,2.81,11.239,4.214,9.831,2.808-78.66,1.4H311.121l-42.139,28.092-2.807,11.238L212.8,166.648V107.654l1.4-36.52,36.521-1.4h29.5l8.428-1.4H333.6Z" transform="translate(2076.241 1490.331)" fill="#2a2d3d" stroke="#fff" stroke-width="2"/>
              <path id="Path_3331" data-name="Path 3331" d="M377.224,78.093l-5.62,39.33v2.808l-1.4,1.4-14.049,26.688-4.213,1.4-15.451,2.81-23.877,16.855-5.618,4.215v-9.833l-66.019-1.4-11.236-8.428L218.5,121.636l1.405-50.566h23.877Z" transform="translate(2871.179 2069.101)" fill="#3e25e2" stroke="#fff" stroke-width="2"/>
              <path id="Path_3332" data-name="Path 3332" d="M347.707,85h0v4.214L346.3,92.019h0v5.619H333.661v14.046l-5.621,67.423L304.163,177.7l-54.78-2.808H214.268L211.46,72.354h18.259L314,70.95V82.187h1.4l15.451,1.4h1.408L346.3,85Z" transform="translate(1889.362 2052.365)" fill="#2a2d3d" stroke="#fff" stroke-width="2"/>
              <path id="Path_3333" data-name="Path 3333" d="M397.847,88.008l5.621-1.4h1.4l2.81-1.4h0v1.4l-1.4,1.4-8.431,7.024-2.808,1.405-1.405,1.4-1.405-7.023,2.81-2.81Zm7.023-11.236,5.62-1.4,1.4,1.4-2.808,1.4-2.808,1.405-1.408,2.81v1.4H402.06l-4.213-4.214,4.213-2.809ZM402.06,66.94l1.408,1.4v4.215h-8.429V71.153l1.405-1.405,1.4-1.4,1.405-1.4Zm-43.541,82.873-120.8,1.4-23.88-14.046v-36.52l78.66-1.405,5.621,1.405,12.641,1.405,5.618,1.4,7.023,4.215,5.618,7.022,1.405,1.4h0l2.811,2.809h1.4v1.405l2.811,1.4h1.405l4.213,4.214h0l9.833,4.214h4.213l7.023,2.81,11.239-1.4h0l2.807-1.4,2.81-1.405,1.4-1.4H383.8l1.4-1.4,1.405-1.405,1.4-1.405v-1.4h0l1.4-4.214-1.4-1.405h0v-2.81h0v-1.4h1.4l1.408-1.405h4.213l4.213,4.214,8.428,8.427,2.81,1.405H414.7l7.023-1.405h7.023l1.405,1.405h2.807l1.405,1.405h0v2.808l-2.808,1.405-1.405,1.4,1.405,2.808h0l1.4,2.81,1.405,1.4h4.216l-40.737,4.214-9.831,2.809-15.451,4.214H358.518Z" transform="translate(2221.281 1493.12)" fill="#2a2d3d" stroke="#fff" stroke-width="2" fill-rule="evenodd"/>
              <path id="Path_3334" data-name="Path 3334" d="M358.838,94.04l16.854,1.4-1.4,28.093L408,124.94l-16.854,53.376H372.882l7.023,25.284-23.877,8.428h-1.405L349,207.814l-2.807-2.808-1.408-5.619-5.616-21.07V158.652l-1.408-1.4h0l-1.4-1.405-2.811-1.4h-1.405l-9.834,1.4-5.615,2.81-8.428,4.214H295.63l-5.621,1.4h0l-30.9,25.283-2.808,2.809-1.408,2.809-4.213,1.4-35.116,4.214-1.4-127.82,18.259,16.855L285.8,91.23Z" transform="translate(2265.91 2334.081)" fill="#3e25e2" stroke="#fff" stroke-width="2"/>
              <path id="Path_3335" data-name="Path 3335" d="M370.9,182.62H220.605L219.2,139.075V91.319h0V67.44H370.9V94.127h0v23.88h0v1.4h0v21.07h0V182.62Z" transform="translate(2968.802 1562.852)" fill="#3e25e2" stroke="#fff" stroke-width="2"/>
              <path id="Path_3358" data-name="Path 3358" d="M362.776,76.333l-2.808,28.093H372.61L371.2,115.663v1.4h0L369.8,132.519H358.563l-5.618,54.78-35.116-1.4,2.807-32.308-33.708-14.046-71.639-8.428,4.215-49.162,73.039-1.4V72.12Z" transform="translate(2423.501 2215.538)" fill="#3e25e2" stroke="#fff" stroke-width="2"/>
              <path id="Path_3369" data-name="Path 3369" d="M370.9,66.38h0V161.9h0v53.376H219.2V145.04l1.405-40.734h2.808l5.621-1.405h4.213l7.023-1.405h7.023l4.213-1.4,15.451-5.619h0l8.428-2.81h2.808l1.408-1.4H281V88.854l1.405-1.4h5.617l1.405,1.4h0l1.405-1.4h2.808l1.407-1.405h1.4l9.834-1.4h1.405l1.4-1.405h2.81l2.811-1.4h1.4l18.261-4.214,5.619-1.4h0l2.811-1.4L351.235,72h1.405l1.405-1.4h4.212l1.405-1.4h0l7.023-1.405h0l1.405-1.4H370.9Z" transform="translate(2968.802 1415.021)" fill="#2a2d3d" stroke="#fff" stroke-width="2"/>
              <path id="Path_3397" data-name="Path 3397" d="M228.584,57.96l5.621,1.405,1.405,1.4h5.616l5.62-1.4h1.405l1.405,2.81-1.405,1.4h-2.811l1.405-1.4h0l-2.811-1.4-1.4,1.4v2.808h0l2.807,1.405,4.216,1.4,1.4,7.023v2.809l-2.807,1.4-1.405,4.214,1.405,2.81,1.405,1.4,2.807,4.215,1.405,9.832-1.405,2.809-5.618,4.214-2.811,1.4h-2.81l-1.4,1.4-1.405,2.81-2.807,1.4-5.618,1.405-18.262-4.214h-1.405l-1.405-4.213,2.811-8.428,2.81-2.809,1.4-1.4v-2.81l-1.4-2.809,1.4-8.428,1.405-1.4,2.81-2.81,2.811-1.4,4.213-2.809,1.4-5.619V57.96ZM488.443,232.134v28.093l-39.331-1.4H335.339V230.73H284.772l-1.405-8.428,5.618-11.238,5.618-4.213,5.62-2.81,4.213-2.809,4.213-4.214h11.239l2.807-1.4,2.811-1.4,1.4-1.4L331.124,190l8.428-5.619,4.213-1.405h4.216l12.641-2.809h14.046l26.687,28.092,87.088-2.81v26.688Z" transform="translate(1535.125 240.744)" fill="#2a2d3d" stroke="#fff" stroke-width="2" fill-rule="evenodd"/>
              <path id="Path_3401" data-name="Path 3401" d="M207.07,63.05h0l132.032,1.4v54.78h77.255v28.093l-36.518-1.4v28.093H266.063l-2.808-5.619-5.621-9.832-4.213-5.619v-1.4l-1.405-1.405-4.213-7.023-4.216-7.023-1.4-1.4h0v-1.405h-1.405v-1.4l-1.405-1.405-8.428-12.641h0v-1.4h0l-1.405-1.405h0l-1.4-1.4h0l-1.4-1.4L225.329,108h0l-1.405-1.4v-1.4l-1.405-2.809L216.9,92.547l-1.4-5.618h0l-1.408-2.81h0l-2.808-8.428h0l-2.81-5.619v-1.4h0v-1.4Z" transform="translate(1277.12 950.61)" fill="#2a2d3d" stroke="#fff" stroke-width="2"/>
              <path id="Path_3402" data-name="Path 3402" d="M232.175,170.436l-2.811-5.619h0l-2.81-5.618v-1.405h0v-1.4h-1.4v-1.4h0l-7.023-9.833-1.405-1.4h0v-1.405l-1.405-1.4h0v-1.4h-1.4v-1.4h0l-2.811-5.619-2.808-7.023h0v-1.4h0l-1.405-4.214h0v-2.81h0l1.405-4.213h0l2.808-5.619v-1.4h0l2.811-2.809,1.4-1.4h0l1.405-1.405h0l1.405-1.4h0l1.4-1.4h0l1.405-1.4,2.807-2.81h0l1.408-1.4h1.4V90.372l4.216-4.213,1.405-1.405h0l4.213-7.023h0l1.405-1.4v-1.4l1.4-2.81h0l2.81-8.428h0v-1.4h4.213l117.988,1.4V171.841l-132.032-1.405Z" transform="translate(1252.017 843.223)" fill="#2a2d3d" stroke="#fff" stroke-width="2"/>
              <path id="Path_3403" data-name="Path 3403" d="M357.784,65.044V118.42l1.407,14.047,1.4,68.828H227.155v-5.619l-1.405-15.451,1.405-7.024-1.405-8.428-1.4-11.237-2.81-21.069-1.405-8.428L215.919,112.8l-1.405-2.809v-2.81l-1.405-4.214L207.49,91.733H321.265V63.64Z" transform="translate(1335.695 1032.893)" fill="#2a2d3d" stroke="#fff" stroke-width="2"/>
              <path id="Path_3404" data-name="Path 3404" d="M227.431,58.26l2.808,1.405,4.216,5.619,7.023,5.618,5.618,2.809,2.81,4.215,1.4,1.4v4.214l1.4,7.023,1.405,2.809,2.81,2.81,4.213,1.4,5.618,2.81h7.023L278,98.994H279.4l2.808-1.4,5.618,1.4,2.808,1.405,7.026-1.405H310.3l8.428,2.81,8.428,5.619,8.426,7.022,4.216,2.81,11.236,5.619h11.239l4.213,2.809h7.023l4.213-1.4,7.025,5.619,9.831,4.214,7.023,2.81,14.046,7.022,9.831,1.405,5.618-1.405h1.408v-2.809h2.807l5.618,4.214h1.405l5.617-2.809h2.81l2.808,4.213h0l2.811,2.809,7.023,7.023,4.216,2.81,2.807,1.4v1.4h1.405v1.4l5.617,2.81h1.405l2.808,1.4h1.405l1.405,1.4-2.81,4.214-7.021,2.809v2.809l1.4,4.214,5.618,5.619-153.1,1.4-115.178,1.4L211.98,58.26Z" transform="translate(1961.881 282.583)" fill="#df26c7" stroke="#fff" stroke-width="2"/>
              <path id="Path_3405" data-name="Path 3405" d="M252.426,229.72l-1.405-40.734H214.5V174.94h4.215L214.5,66.783,374.629,62.57v5.619l1.4,21.069,1.4,4.214,1.4,2.81,2.811,11.237,5.618,12.642v2.809l4.213,9.833,4.213,8.428v4.214L397.1,162.3l-1.408,7.023,2.811,4.213v5.619l-1.4,2.809,2.808,25.284,1.405,4.214,4.213,4.213,1.4,9.833Z" transform="translate(2313.328 883.668)" fill="#df26c7" stroke="#fff" stroke-width="2"/>
              <path id="Path_3428" data-name="Path 3428" d="M246.548,178.115V157.046l-29.5-2.81,1.405-47.757h1.405v1.4h1.405l7.023,2.809H231.1l15.451,2.81h5.618l2.811-1.4,4.216-1.4h0l8.425-1.4h8.428l4.213,1.4h2.811l4.213,1.4h2.81l1.405-1.4,1.4-1.4h2.811l1.405-1.4h1.405l1.4-1.4h0l4.215-2.809h0l1.4-1.4,7.023-4.214h0l5.621-1.4h2.807l1.405-1.405,2.811-1.405,2.808-1.4h0l1.407-1.4h1.4l2.81-1.405,1.4-1.4h0V86.814h1.405l2.81-2.81h1.4l4.215-2.809,9.834-8.427h0l1.4-1.405h1.405l4.216-1.4h2.81l2.808-2.808v1.4l1.405,8.428v9.832h29.5v68.826H379.988l-44.95-1.4h-1.4l2.808,23.879h-89.9Z" transform="translate(2668.959 1522.407)" fill="#3e25e2" stroke="#fff" stroke-width="2"/>
              <path id="Path_3429" data-name="Path 3429" d="M374.587,66.95l-1.4,36.52v36.521H229.912l-12.641-8.428-5.621-60.4h12.644L374.587,66.95Z" transform="translate(1915.858 1494.514)" fill="#2a2d3d" stroke="#fff" stroke-width="2"/>
              <path id="Path_3430" data-name="Path 3430" d="M329.463,210.584l-8.426-1.405h-4.216l-4.213,1.405-4.213,2.808H284.513l2.811-28.092-36.518-2.81L246.59,154.4l-30.9-1.4,2.811-21.07h37.924l5.618-58.993,35.115,1.4,71.637,8.428-1.4,14.046L354.745,124.9,340.7,140.352l-2.811,1.4-7.023,5.619-1.4,2.81V154.4l7.023,4.214,2.811,8.427,1.405,7.024,4.213,26.688v1.4l-1.4,4.214-1.408,1.4-1.4,1.405-2.811,1.405Z" transform="translate(2479.289 2328.502)" fill="#3e25e2" stroke="#fff" stroke-width="2"/>
              <path id="Path_3485" data-name="Path 3485" d="M253.576,152.684H218.46V138.638l1.405-28.093h18.262l1.4-40.734,102.537,2.81,23.88,1.4-5.618,81.469-47.756-1.4Z" transform="translate(2865.602 1893.378)" fill="#3e25e2" stroke="#fff" stroke-width="2"/>
              <path id="Path_3486" data-name="Path 3486" d="M333.308,74.34,330.5,92.6l68.826,12.641-1.405,28.093-36.52-2.81-2.811,28.093L288.359,154.4v8.428l-73.039,1.4,2.808-30.9v-1.405l2.811-26.688,35.116-2.809V88.386l37.926,1.4,2.808-18.261Z" transform="translate(2427.689 2133.254)" fill="#3e25e2" stroke="#fff" stroke-width="2"/>
              <path id="Path_3487" data-name="Path 3487" d="M222.213,85.181h5.618l1.4-12.641,71.639,8.428,33.708,14.046-2.807,32.307-5.618,58.993H288.232l-15.452-1.4h-8.431l-33.708-1.4,1.4-28.093-16.854-1.4Z" transform="translate(2409.557 2274.112)" fill="#3e25e2" stroke="#fff" stroke-width="2"/>
              <path id="Path_3519" data-name="Path 3519" d="M263.28,127.092l1.4,1.4,2.81,1.4h11.238v-1.4h0v-4.214h0l2.81-7.023h1.4L292.778,99l2.808-1.405,1.405-1.4,1.405-4.214h0l-7.023-1.4h0l-2.808,1.4-1.408-2.809h1.408l1.4-1.405h0l1.405-1.4,4.213-2.809v-1.4h0l1.405-1.405L298.4,77.93v-1.4l2.81-7.023h0V66.694h0v-1.4h0l8.426-5.619h5.618l1.408,1.4v1.4h0v1.4l1.4,1.4h0V69.5h-2.81l-2.808,1.4-1.4,5.619v2.809h0v1.4h0l-1.405,4.214v1.4l1.405,1.4h0v1.405h0L308.229,99l-1.405,2.81h0l-1.405,2.809h-2.81l-1.4,1.4h0l-1.408,1.4h-2.807l-1.405,1.4h0l-1.4,1.4h-1.405v1.405l-1.405,1.4h0l-1.405,1.4h0l-1.4,1.4h0v4.214h0v1.4h0v1.4l-2.81,4.214v1.4l-1.405,2.81h0v1.4h0l1.405,1.405,4.213,1.4H299.8v-1.4l5.621-2.809,1.405-1.405h0v-4.213h-1.405v-2.81h0l2.81-4.214v-1.4l4.213-1.405h2.808v-1.4h0l4.216-2.809h0v-2.81l1.405-1.4h0v-1.4h1.4v-1.4l2.81-4.214L360.2,115.855v94.111H208.5l1.4-82.873Z" transform="translate(1476.551 479.225)" fill="#2a2d3d" stroke="#fff" stroke-width="2"/>
              <path id="Path_3572" data-name="Path 3572" d="M347.013,137.243l1.405,11.237-49.162,1.4-92.706-1.4V69.82h99.726l40.736,18.26Z" transform="translate(1204.6 1894.773)" fill="#2a2d3d" stroke="#fff" stroke-width="2"/>
              <path id="Path_3584" data-name="Path 3584" d="M206.28,157.514h14.049L213.3,92.9V80.259l35.116-4.214,35.115-1.4-1.4,18.26h35.116l11.236,39.331-1.405,1.4-1.4,2.81-1.408,2.809-4.213,2.81-4.213,1.4H301.8l-2.81,1.405-1.405,1.405v21.07L272.3,202.462l-9.834,4.214h-5.618l-1.4-7.023-15.451-9.833-2.81,1.405H232.97l-2.81-2.81-4.216-4.214-5.615-8.427-5.62-9.833-1.405-4.213Z" transform="translate(1166.944 2566.983)" fill="#2a2d3d" stroke="#fff" stroke-width="2"/>
              <path id="Path_3585" data-name="Path 3585" d="M318.668,177.258l-18.262,2.81-7.021,4.213-2.81,1.405H277.934l-2.811-2.81-4.213-5.619-2.81-4.214-2.81-1.4-2.808-2.81h-5.621l-1.4,1.4-7.023,7.023-2.811,2.81-1.405,1.405v4.213l1.405,1.4,2.811,4.215,4.213,2.809,1.405,1.4v1.4l1.405,7.024v2.81l-12.641,9.833-8.428-2.81-1.405-1.4-8.429-2.809-4.213-1.405-2.811,1.405v-9.832l-7.023-4.214-7.02-16.856,4.213,1.405,11.236,1.405h1.405l1.4-1.405V153.379l-8.426-18.26-1.405-2.811,9.831-18.26,12.644-5.619,9.83-2.808,4.216-2.81,5.618-7.022v-1.4l-1.405-2.81h-4.213l-4.216-1.4-2.807-4.213-2.808-2.81L237.2,78.934l2.81-4.214h47.757l35.116,19.665Z" transform="translate(777.843 2578.141)" fill="#2a2d3d" stroke="#fff" stroke-width="2"/>
              <path id="Path_3586" data-name="Path 3586" d="M308.069,138.033H237.838L220.981,152.08l-11.236-4.215L208.34,98.7l29.5-23.879,35.116-1.4V97.3l35.116,18.26Z" transform="translate(1454.237 2396.839)" fill="#2a2d3d" stroke="#fff" stroke-width="2"/>
              <path id="Path_3587" data-name="Path 3587" d="M347.135,139.384h-2.81l-9.831,4.214-8.425,7.022-5.621,5.619-5.618,2.81-18.262,2.809h0l-9.831,2.81-7.023,4.214-2.81,2.808-1.4,2.81v5.617l-4.215,12.643-2.808,7.023-2.81,2.809-4.216,2.809-7.023,1.4h-4.213l-1.4-1.4-22.475-16.855-18.259-9.832-2.808-1.405,1.4-14.046,60.4-60.4h16.853V76.175l70.232-1.405,7.026,64.614Z" transform="translate(1026.087 2585.113)" fill="#fc7c00" stroke="#fff" stroke-width="2"/>
              <path id="Path_3588" data-name="Path 3588" d="M330.669,73.16,339.1,87.206l1.405,1.4L339.1,92.824l-1.405,4.214-7.023,16.855-9.83,4.215-30.9,4.213-8.429-1.4h-7.023l-9.833,4.213-23.877,11.238-1.405,2.809-9.833,5.619-5.618,2.81-5.618,1.4h-4.216l-4.213-1.4V73.16h21.072l-1.407,8.427,84.277,1.4Z" transform="translate(1667.615 2360.579)" fill="#2a2d3d" stroke="#fff" stroke-width="2"/>
              <path id="Path_3589" data-name="Path 3589" d="M282.967,145.091,263.3,156.329l-11.236-5.619-2.808-2.81-4.216-4.213-1.405-2.809,1.405-2.81-1.405-1.4-1.4-1.405h-1.405l-2.811-1.4-2.81,1.4L226.785,149.3l1.4,4.213,1.407,2.81,7.021,4.213,2.81,1.405v9.832l-5.618,5.618L231,178.8l-8.429,2.81-8.426-1.4-2.811-2.81v-5.618l5.618-8.428-1.405-4.214-2.81-1.4H204.31l4.213-82.873h68.826Z" transform="translate(892.202 2597.666)" fill="#2a2d3d" stroke="#fff" stroke-width="2"/>
              <path id="Path_3590" data-name="Path 3590" d="M308.342,135.528l-4.213,1.4L285.867,148.17l-1.4,2.809v1.4l1.4,2.81,4.216,4.213L210.02,184.691,231.087,72.32H274.63l33.711,1.405V90.58h0v44.948Z" transform="translate(1688.535 2243.429)" fill="#2a2d3d" stroke="#fff" stroke-width="2"/>
              <path id="Path_3591" data-name="Path 3591" d="M327.911,156.934,292.8,161.147v12.641l-70.231,1.405H205.71V76.87l46.352,4.213,75.849-7.024v82.874Z" transform="translate(1087.451 2486.094)" fill="#fc7c00" stroke="#fff" stroke-width="2"/>
              <path id="Path_3592" data-name="Path 3592" d="M292.234,66.86h40.737l1.405,74.445v26.688H207.96V114.617h0V66.86h84.274Z" transform="translate(1401.241 1481.962)" fill="#2a2d3d" stroke="#fff" stroke-width="2"/>
              <path id="Path_3706" data-name="Path 3706" d="M230.552,71.11l70.231,8.427v8.429l57.591,7.022-1.4,1.4V99.2l-1.405,14.047-5.618,51.971L254.432,159.6l-42.142-2.809,5.621-67.423V75.323h12.641Z" transform="translate(2005.114 2074.68)" fill="#2a2d3d" stroke="#fff" stroke-width="2"/>
              <path id="Path_3735" data-name="Path 3735" d="M359.946,142.061l-33.711-1.4h-91.3L211.058,153.3V95.708L209.65,74.639l1.408-1.405,81.467-1.4,68.826,1.4v4.215h0v9.832l-1.405,26.688v28.093Z" transform="translate(1636.932 2175.093)" fill="#2a2d3d" stroke="#fff" stroke-width="2"/>
              <path id="Path_3737" data-name="Path 3737" d="M209.62,63.84H358.511V172H211.025Z" transform="translate(1632.749 1060.786)" fill="#df26c7" stroke="#fff" stroke-width="2"/>
            </g>
          </svg>