<svg xmlns="http://www.w3.org/2000/svg" width="33" height="33" viewBox="0 0 33 33">
  <g id="coal" transform="translate(1.5 1.5)">
    <g id="Rectangle_1" data-name="Rectangle 1" fill="#606060" stroke="#cba333" stroke-width="1.5">
      <rect width="30" height="30" rx="5" stroke="none"/>
      <rect x="-0.75" y="-0.75" width="31.5" height="31.5" rx="5.75" fill="none"/>
    </g>
    <g id="coal-svgrepo-com" transform="translate(-16.321 3.38)">
      <path id="Path_566" data-name="Path 566" d="M45.628,131.249l2.088-6.769H29.027l2.088,6.769a.627.627,0,0,0,.6.442h.221a2.7,2.7,0,0,1,4.549,0h3.833a2.7,2.7,0,0,1,4.549,0h.163A.627.627,0,0,0,45.628,131.249Z" transform="translate(-7.05 -114.723)" fill="#1c1c1c"/>
      <path id="Path_567" data-name="Path 567" d="M41.053,8.5l.185-.581a.645.645,0,0,0-.095-.566.635.635,0,0,0-.5-.264h-.82a3.626,3.626,0,0,0,.071-.714,3.761,3.761,0,0,0-4.238-3.763A2.763,2.763,0,0,0,31.393.443,2.765,2.765,0,0,0,27.135,2.62a3.83,3.83,0,0,0-.436-.026,3.787,3.787,0,0,0-3.8,3.784,3.626,3.626,0,0,0,.071.714H22a.644.644,0,0,0-.5.272.609.609,0,0,0-.095.548l.185.59Z" transform="translate(0)" fill="#1c1c1c"/>
      <path id="Path_568" data-name="Path 568" d="M63.661,219.95a1.45,1.45,0,1,0-.96-.287,12.882,12.882,0,0,0-1.695-.3,14.538,14.538,0,0,0-3.254,0,12.878,12.878,0,0,0-1.7.307,1.45,1.45,0,1,0-.931.28,8.841,8.841,0,0,0-.93.386,6.871,6.871,0,0,0-.611.319,3.275,3.275,0,0,0-1.784,2.626H67a3.286,3.286,0,0,0-1.8-2.634c-.185-.113-.382-.213-.593-.316A8.9,8.9,0,0,0,63.661,219.95Z" transform="translate(-28.03 -200.041)" fill="#1c1c1c"/>
    </g>
  </g>
</svg>
