<svg xmlns="http://www.w3.org/2000/svg" width="33" height="33" viewBox="0 0 33 33">
  <g id="iron" transform="translate(1.5 1.5)">
    <g id="Rectangle_1" data-name="Rectangle 1" fill="#4554b9" stroke="#cba333" stroke-width="1.5">
      <rect width="30" height="30" rx="5" stroke="none"/>
      <rect x="-0.75" y="-0.75" width="31.5" height="31.5" rx="5.75" fill="none"/>
    </g>
    <g id="gold-ingot-gold-svgrepo-com" transform="translate(-78.17 3.244)">
      <g id="Group_2" data-name="Group 2" transform="translate(85.333)">
        <path id="Path_565" data-name="Path 565" d="M100.72,4.206,96.8.288s0,0,0,0A.977.977,0,0,0,96.522.1c-.03-.015-.063-.023-.094-.034a.953.953,0,0,0-.257-.051c-.022,0-.04-.013-.062-.013H90.231c-.021,0-.038.011-.059.012a.993.993,0,0,0-.262.053c-.03.011-.062.019-.091.032a.992.992,0,0,0-.278.187s0,0,0,0L85.62,4.206a.977.977,0,0,0-.287.693V22.532c0,.024.01.045.011.069a.96.96,0,0,0,.032.2.976.976,0,0,0,.039.106c.013.029.018.061.033.09s.033.043.049.067a.874.874,0,0,0,.067.092.933.933,0,0,0,.129.127,1.04,1.04,0,0,0,.082.066.931.931,0,0,0,.206.1.428.428,0,0,0,.047.024h.01a.954.954,0,0,0,.274.041h13.715a.954.954,0,0,0,.274-.041h.01a.427.427,0,0,0,.047-.024.952.952,0,0,0,.206-.1c.029-.02.055-.043.082-.066a.991.991,0,0,0,.129-.127.884.884,0,0,0,.067-.092c.016-.024.035-.042.049-.067s.021-.061.033-.09a.815.815,0,0,0,.071-.3c0-.024.011-.045.011-.069V4.9A.977.977,0,0,0,100.72,4.206ZM87.292,5.3l1.959-1.959V16.357L87.292,19.3Zm.85,16.248,2.613-3.919h4.83L98.2,21.552ZM99.048,19.3l-1.959-2.939V3.345L99.048,5.3Z" transform="translate(-85.333)" fill="#0e122c"/>
      </g>
    </g>
  </g>
</svg>
