<svg xmlns="http://www.w3.org/2000/svg" width="33" height="33" viewBox="0 0 33 33">
  <g id="lumber" transform="translate(1.5 1.5)">
    <g id="Rectangle_1" data-name="Rectangle 1" fill="#6b4a18" stroke="#cba333" stroke-width="1.5">
      <rect width="30" height="30" rx="5" stroke="none"/>
      <rect x="-0.75" y="-0.75" width="31.5" height="31.5" rx="5.75" fill="none"/>
    </g>
    <g id="Group_1" data-name="Group 1" transform="translate(-1661.449 -1817.861)">
      <g id="tree-evergreen-svgrepo-com" transform="translate(1667.294 1821.593)">
        <path id="Path_560" data-name="Path 560" d="M8.808,5.634h8.451a.7.7,0,0,0,.5-1.2L13.532.206a.7.7,0,0,0-1,0L8.31,4.432a.7.7,0,0,0,.5,1.2Z" transform="translate(-3.879 0)" fill="#291c08"/>
        <path id="Path_561" data-name="Path 561" d="M7.007,11.629H18.275a.7.7,0,0,0,.5-1.2l-2.3-2.3H8.814l-2.3,2.3a.7.7,0,0,0,.5,1.2Z" transform="translate(-3.486 -1.77)" fill="#291c08"/>
        <path id="Path_562" data-name="Path 562" d="M12.606,27.481a.352.352,0,0,0,.352.352h2.113a.352.352,0,0,0,.352-.352V24.312H12.606Z" transform="translate(-4.86 -5.298)" fill="#291c08"/>
        <path id="Path_563" data-name="Path 563" d="M20.805,21.229,18.486,18.91H5.227L2.908,21.229a.7.7,0,0,0,.5,1.2h16.9a.7.7,0,0,0,.5-1.2Z" transform="translate(-2.701 -4.12)" fill="#291c08"/>
        <path id="Path_564" data-name="Path 564" d="M5.207,17.028H19.291a.7.7,0,0,0,.5-1.2L17.47,13.507H7.028L4.709,15.826a.7.7,0,0,0,.5,1.2Z" transform="translate(-3.094 -2.943)" fill="#291c08"/>
      </g>
    </g>
  </g>
</svg>
