<svg xmlns="http://www.w3.org/2000/svg" width="33" height="33" viewBox="0 0 33 33">
  <g id="uranium" transform="translate(1.5 1.5)">
    <g id="Rectangle_1" data-name="Rectangle 1" fill="#1b8b1b" stroke="#cba333" stroke-width="1.5">
      <rect width="30" height="30" rx="5" stroke="none"/>
      <rect x="-0.75" y="-0.75" width="31.5" height="31.5" rx="5.75" fill="none"/>
    </g>
    <g id="radioactive-svgrepo-com" transform="translate(3.52 -10.842)">
      <path id="Path_569" data-name="Path 569" d="M208,194.046a2.152,2.152,0,1,0,2.153-2.153A2.152,2.152,0,0,0,208,194.046Z" transform="translate(-198.672 -168.926)" fill="#0a430a"/>
      <path id="Path_570" data-name="Path 570" d="M285.059,15.232a1.435,1.435,0,0,0-1.96.525l-2.492,4.315a1.435,1.435,0,0,0,.517,1.956,3.6,3.6,0,0,1,1.783,3.062c0,.018,0,.037,0,.049a1.434,1.434,0,0,0,1.435,1.466h5.025A1.435,1.435,0,0,0,290.8,25.17,11.51,11.51,0,0,0,285.059,15.232Z" transform="translate(-267.839 -0.003)" fill="#0a430a"/>
      <path id="Path_571" data-name="Path 571" d="M122.186,305.778a1.435,1.435,0,0,0-1.956-.527,3.6,3.6,0,0,1-3.553,0,1.436,1.436,0,0,0-1.956.528l-2.533,4.385a1.435,1.435,0,0,0,.52,1.957,11.457,11.457,0,0,0,11.49,0,1.435,1.435,0,0,0,.52-1.958Z" transform="translate(-106.974 -277.019)" fill="#0a430a"/>
      <path id="Path_572" data-name="Path 572" d="M7.486,26.171a1.436,1.436,0,0,0,.409-1.035c0-.012,0-.03,0-.049a3.6,3.6,0,0,1,1.781-3.063,1.435,1.435,0,0,0,.518-1.956L7.7,15.754a1.434,1.434,0,0,0-1.96-.525A11.51,11.51,0,0,0,0,25.167,1.435,1.435,0,0,0,1.435,26.6H6.46A1.436,1.436,0,0,0,7.486,26.171Z" transform="translate(0 0)" fill="#0a430a"/>
    </g>
  </g>
</svg>
