<svg xmlns="http://www.w3.org/2000/svg" width="33" height="33" viewBox="0 0 33 33">
  <g id="wheat" transform="translate(1.5 1.5)">
    <g id="Rectangle_1" data-name="Rectangle 1" fill="#e6bd21" stroke="#cba333" stroke-width="1.5">
      <rect width="30" height="30" rx="5" stroke="none"/>
      <rect x="-0.75" y="-0.75" width="31.5" height="31.5" rx="5.75" fill="none"/>
    </g>
    <path id="wheat-paddy-farm-agriculture-svgrepo-com" d="M22.5,13a.472.472,0,0,0-.5-.5,7.719,7.719,0,0,0-1.5.2,6.564,6.564,0,0,0,2-4.7.472.472,0,0,0-.5-.5,6.282,6.282,0,0,0-4,1.4,6.556,6.556,0,0,0-1.6-6.5.483.483,0,0,0-.7,0,6.39,6.39,0,0,0-1.6,6.5,6.282,6.282,0,0,0-4-1.4c-.4,0-.6.2-.6.5a6.745,6.745,0,0,0,2,4.7,7.719,7.719,0,0,0-1.5-.2.472.472,0,0,0-.5.5,6.745,6.745,0,0,0,2,4.7,7.719,7.719,0,0,0-1.5-.2.472.472,0,0,0-.5.5A6.545,6.545,0,0,0,15,24.4V29a1,1,0,0,0,2,0V24.4A6.545,6.545,0,0,0,22.5,18a.472.472,0,0,0-.5-.5,7.719,7.719,0,0,0-1.5.2A6.745,6.745,0,0,0,22.5,13ZM16,14.5a7.719,7.719,0,0,0,1.5-.2A6.623,6.623,0,0,0,16,16.5a6.623,6.623,0,0,0-1.5-2.2A7.719,7.719,0,0,0,16,14.5Zm0,7a6.623,6.623,0,0,0-1.5-2.2,7.719,7.719,0,0,0,1.5.2,7.719,7.719,0,0,0,1.5-.2A6.623,6.623,0,0,0,16,21.5Z" transform="translate(15.088 -7.716) rotate(45)" fill="#766110"/>
  </g>
</svg>
